<svg id="Layer_1" data-name="Layer 1" xmlns="http://www.w3.org/2000/svg" viewBox="0 0 232.71 241.34"><path d="M172.41,148.24c-11.41-2.84-22.82-5.68-34.14-8.43,9.46,3.46,19.26,6.74,29.32,10,5.41,1.69,10.82,3.38,16.06,5l-10.14-4.34,10.3.7Z" transform="translate(0 -0.01)"/><path d="M158,201.84l5.13,9.27a100.2,100.2,0,0,1-48,16.7c-13.07,1-31.57,2.69-49.6-9.29-17.26-11.46-24.32-28.84-26.78-36,3.17,6.37,12.36,22.72,31.3,32.13,17.43,8.66,33.29,6.49,43.57,5.22A94.27,94.27,0,0,0,158,201.84Z" transform="translate(0 -0.01)"/><path d="M196.57,176.73l-1,6.57c-.16.17-.24.35-.41.53a105.48,105.48,0,0,1-31.94,27.32l-5.15-9.32a91.84,91.84,0,0,0,25.5-22.1,94.55,94.55,0,0,0,10.73-17A21.35,21.35,0,0,1,196.57,176.73Z" transform="translate(0 -0.01)"/><path d="M208.4,65.47C206.46,67.34,198,71.68,197,72a105.12,105.12,0,0,1,8.7,47.72,100.76,100.76,0,0,1-5.49,27.86,22.94,22.94,0,0,0,7.1-9.58l7.09-17.57-3,18.54a22.27,22.27,0,0,0,1.18,11.71A117.22,117.22,0,0,0,208.4,65.47Z" transform="translate(0 -0.01)"/><path d="M101.18,8.56C100.69,17,99.87,26,98.61,35.51c-1.55,11.7-3.56,22.5-5.78,32.35,3.23-9.75,6.36-20.32,9.2-31.67,2.42-9.64,4.39-18.87,6-27.63a96.58,96.58,0,0,1,40,10.33,102.07,102.07,0,0,1,36.24,31l9.63-7.16a110.76,110.76,0,0,0-39.66-32.37,101.35,101.35,0,0,0-88.79-.23A111.48,111.48,0,0,0,26.08,41.58,114,114,0,0,1,68,14.85,108.82,108.82,0,0,1,101.18,8.56Z" transform="translate(0 -0.01)"/><path d="M114.71,145.27a89.48,89.48,0,0,1-15.84,44.78,82.84,82.84,0,0,1-28,25,61.87,61.87,0,0,0,11.28,4.11A60.22,60.22,0,0,0,93.86,221a64.44,64.44,0,0,1,5.74-18.79c3.09-6.33,5.62-8.66,9-15.35a72.24,72.24,0,0,0,6.11-17.24c2.75,9,1.86,15.28.59,19.24-2.29,7.16-6.7,9.79-12.11,20.4a78,78,0,0,0-4.88,11.86l5.77-.35,4.85-.29a98.52,98.52,0,0,0,9.68-31A100.39,100.39,0,0,0,114.71,145.27Z" transform="translate(0 -0.01)"/><path d="M39.47,155.66c-2.71-2.67.29-10.1.52-10.66.71-1.72,3.42-7.59,19.27-15.1,9.38-4.46,21.85-8.77,22.95-6.56.46.93-1.17,3-1.27,3.07-1.25,1.52-2.72,1.81-4.37,2.46-4.12,1.64-7.13,5.17-6.77,5a12,12,0,0,1,6.25-1.59c2,.09,2.92.72,5.08.53a11,11,0,0,0,4.5-1.45c4.77-2.56,6.69-7.92,7.12-9.22C92.21,119,91,118,90.31,117.61c-1.68-.92-3.46.07-8.79,2.07-2.13.79-4.32,1.43-6.44,2.25-11.29,4.35-10.91,4.09-14,5.33C45,133.8,37,137,32.93,143c-2,3-5,8.93-4.6,19.22A25.63,25.63,0,0,0,46,161.93c9.73-3.8,13.86-12.33,14.7-14.17C58.08,149.59,43.6,159.73,39.47,155.66Z" transform="translate(0 -0.01)"/><path d="M79.33,153.73A32.83,32.83,0,0,1,89,164.36c7.2,12.53,4.09,25.21,3.51,27.39A81.52,81.52,0,0,0,108,162.44a84.63,84.63,0,0,0,1.71-39.57,81.79,81.79,0,0,1-2.41,23.63,79.6,79.6,0,0,1-9.59,22.56c-2.26-4.47-6.76-11.84-14.25-16.41a37.25,37.25,0,0,0-4.31-2.21,30.17,30.17,0,0,0-3.6-1.28l-.1-.2A14.46,14.46,0,0,1,74,144.38a15.37,15.37,0,0,1,4.42-5c5-3.53,9.42-1.5,13.61-4.51,1.75-1.26,3.82-3.66,5-8.68a35.57,35.57,0,0,1-5.41,4.92,34.47,34.47,0,0,1-6.18,3.62c-5.54,2.49-7.78,1.6-11.33,3-2.76,1.09-6.36,3.61-9.57,10a36.12,36.12,0,0,1,7.29,2A37,37,0,0,1,79.33,153.73Z" transform="translate(0 -0.01)"/><path d="M205.15,51.31c-3.08-4.65-4.67-7-7.49-7.52s-5.15.89-6.64,1.78a15.31,15.31,0,0,0-5.74,6.2q.33,5.7.65,11.4a21.87,21.87,0,0,1-5.62,6.56,22.58,22.58,0,0,1-6.54,3.42c-1.89.65-2.17.49-3.91,1a26.17,26.17,0,0,0-9,5.12c-4,3.15-3.56,4.09-6.12,6-5.57,4.2-8.81.32-15.54,3.84s-6.67,8.09-13.22,10c-4,1.15-5.59.37-9.51.79s-9.22,2.19-15.35,8.08a9.21,9.21,0,0,0,1-4.64c-.27-3.87-3.47-6.29-2.59-7.54.77-1.1,3.51.49,4.3-.79,1-1.63-1.16-4.56-1.52-5-2.13-2.87-4.15-2.35-5.31-4.63-1.06-2.06.18-3.28-.19-6.3-.49-4.11-3.36-6.87-4.8-8.26a17.68,17.68,0,0,0-12.53-4.76A18.74,18.74,0,0,0,66.9,71.84c-.79.78-7.52,7.62-6.17,15.25.6,3.39,2.53,6,6.66,11,2.74,3.31,4.24,4.66,5.58,7.88a20.3,20.3,0,0,1,1.54,7.69,13.31,13.31,0,0,0,4.9-5.78c.33-.74,3.2-7.34-.32-11-2.06-2.12-5.58-2.49-8.85-1.13A15.1,15.1,0,0,0,76,87.81c1.62-6.14-1.88-12.22-1.08-12.61s2.73,5.72,7.77,8.61c3.52,2,7.46,1.84,10.64,1.18-5.5,4.21-6.38,7.28-6.2,9.27.39,4.34,5.94,5.91,5.68,9.86-.25,3.76-5.62,5.17-5,7.11.8,2.3,5.91,2.84,9.38,1a9.2,9.2,0,0,0,2.2-1.72,41.66,41.66,0,0,1,7-4.26,10.19,10.19,0,0,1,2.65.82c2.36,1.24,4.4,4.72,4.59,13.32a21.07,21.07,0,0,0,4.79-5c2.86-4.23,1.8-6,4.29-8.51s4.08-1.6,8.21-5.12c.69-.59,2.92-2.5,2.6-3.09h0a17.52,17.52,0,0,1,5-5.56c4.58-3.15,7.63-1.85,11.85-2.4a7.84,7.84,0,0,1,4.2,2.64c2.06,3,.45,7.61.28,9.56-1.36,1.44-3,3.3-6,6.19A127.43,127.43,0,0,1,135.69,120a45.91,45.91,0,0,0,14.64-9.39c4.85-4.67,5.18-7.2,9.74-10,6.22-3.79,8.13-1.92,13.58-5.43a21.86,21.86,0,0,0,2.5-1.89c3.21-2.82,8.4-10.68,10.66-13.76a49.75,49.75,0,0,1,7.67-8.28,30.78,30.78,0,0,0,8.16-3c3.88-2,6.53-3.45,7.27-6.14S208.71,56.73,205.15,51.31Zm-21.94,28.9a39.41,39.41,0,0,0-3.39,4.33c-1.74,2.61-1.91,3.76-4.88,6.41-4.38,3.91-7,3.49-12,6-1.83-.28-4.57-.68-5.65-2.59s.05-4.92.61-6.78c3.75-2.74,3.38-5.39,9.54-8.84S176,76.88,180.2,73c4.47-4.09,6.85-7.71,7.29-7.38s-1.88,4.64-5.07,9a56.28,56.28,0,0,1-10.63,11A18.21,18.21,0,0,0,181,79.81c2-2.4,2.51-4.52,5.4-7,2.48-2.09,5.41-3.34,5.73-2.87s-3.06,3.52-8.89,10.27Z" transform="translate(0 -0.01)"/><path d="M147,177.87a38.24,38.24,0,0,1-2.83,16.2,36.43,36.43,0,0,1-11.43,15,57.69,57.69,0,0,0,6.64-15c3-10.52,2.18-19.18,1.23-28.48a121,121,0,0,0-6.31-28.11,27.4,27.4,0,0,1,.13-9.43,27.07,27.07,0,0,1,1.86-5.89c-.78.9-1.57,1.9-2.38,3s-1.36,1.92-2,2.83a14.14,14.14,0,0,1-5.27,2.84c-3.13.87-4.66,0-6.12.72-1.75.84-3.29,3.87-2.7,13.13a14,14,0,0,1,1-5.65c.26-.63,2.68-6.4,6.37-6.47,2,0,3.7,1.57,5.35,3.91,7.9,11.19,7.1,28.91,7.1,28.91A76.94,76.94,0,0,1,129,197a87.09,87.09,0,0,1-16.67,23.12,82.74,82.74,0,0,0,24.4-6.2,85.48,85.48,0,0,0,21.95-13.54,90.12,90.12,0,0,0-5.56-12.6A88.75,88.75,0,0,0,147,177.87Z" transform="translate(0 -0.01)"/><path d="M117.82,144.67a14.23,14.23,0,0,0,.13,1.73C117.89,145.8,117.85,145.22,117.82,144.67Z" transform="translate(0 -0.01)"/><path d="M30,120.87l-4.79-10a13.43,13.43,0,0,0-14.75-7.6L0,105.38l9.48-5a14.54,14.54,0,0,0,7.23-15.47L14.71,74l4.78,10a13.46,13.46,0,0,0,14.76,7.61l10.46-2.12-9.48,5A14.53,14.53,0,0,0,28,109.9Z" transform="translate(0 -0.01)"/><path d="M40.21,59.9l-4.79-2.17a6.51,6.51,0,0,0-7.88,2L24.2,63.9l2.12-5a7.28,7.28,0,0,0-1.85-8.27l-4-3.51,4.79,2.22a6.5,6.5,0,0,0,7.88-1.94l3.34-4.22-2.12,5a7.28,7.28,0,0,0,1.85,8.27Z" transform="translate(0 -0.01)"/><path d="M66.4,204.5a26.07,26.07,0,0,1-14.07-13.57c-5.83-13.44,2.45-26.16,2.85-26.75a35.25,35.25,0,0,0-1.71,20.36A34,34,0,0,0,66.4,204.5Z" transform="translate(0 -0.01)"/><path d="M194.31,192.73l2.53-16c1.46-9.18-2.37-17.59-9.36-20.6l-12.2-5.25,13.4.92c7.68.53,15.4-5.09,18.9-13.78l6.13-15.12-2.53,16c-1.46,9.18,2.36,17.59,9.36,20.6l12.17,5.23-13.39-.92c-7.68-.53-15.4,5.09-18.9,13.78Z" transform="translate(0 -0.01)"/><path d="M175.53,61.57c-16.9,10.91-53.74,34.15-57.88,36.28,13.94-9.76,28.14-19.69,42.76-29.45,8.11-5.41,16.14-10.64,24.17-15.88a3,3,0,0,1,.42,1.69,3.27,3.27,0,0,1-.17.88l-.09.09C181.71,57.31,178.58,59.44,175.53,61.57Z" transform="translate(0 -0.01)"/><path d="M216.77,30.88c-1.86,3.37-3.72,6.74-5.58,10.2-2.53.35-5,.71-7.52,1.15-1.1.71-2.19,1.6-3.29,2.31l-1.27-.8a3.49,3.49,0,0,0-.93-.35c1.35-1.07,2.62-2,4-3.11l3-5.85C209,33.18,212.88,32,216.77,30.88Z" transform="translate(0 -0.01)"/><path d="M63.4,223.56A87.8,87.8,0,0,0,99,235.91c18.25,2.11,32.22-2.29,42.1-5.53a124.86,124.86,0,0,0,40-22.09c-9,9.25-25.19,22.87-48.42,29.28-8.78,2.42-21.22,5.69-37,2.37A72,72,0,0,1,63.4,223.56Z" transform="translate(0 -0.01)"/><path d="M115.71,150.08l-4.27-8.54c-2.45-4.9-7.36-7.35-12-6L91.3,137.9,98.55,133c4.17-2.8,6.2-8.52,5-14l-2.13-9.55,4.27,8.54c2.45,4.91,7.37,7.35,12,6l8.14-2.36-7.25,4.88c-4.17,2.8-6.2,8.52-5,14Z" transform="translate(0 -0.01)"/><path d="M84.57,100.51l-2.13-4.25a5.16,5.16,0,0,0-6-3l-4,1.18L76,92a6.66,6.66,0,0,0,2.48-7l-1.06-4.75,2.12,4.25a5.16,5.16,0,0,0,6,3l4-1.18L86,88.76a6.66,6.66,0,0,0-2.47,7Z" transform="translate(0 -0.01)"/></svg>