<svg id="Layer_1" data-name="Layer 1" xmlns="http://www.w3.org/2000/svg" viewBox="0 0 232.69 241.34"><defs><style>.cls-1{fill:#3651a1;}.cls-2{fill:#2fa8df;}.cls-3{fill:#3d8aca;}</style></defs><path class="cls-1" d="M353.7,448.51c-11.41-2.84-22.82-5.68-34.14-8.43,9.46,3.46,19.26,6.74,29.32,10,5.41,1.69,10.82,3.38,16.06,5l-10.14-4.34,10.3.7Z" transform="translate(-181.29 -300.27)"/><path class="cls-1" d="M339.33,502.11l5.13,9.27a100.12,100.12,0,0,1-48,16.7c-13.07,1-31.57,2.69-49.6-9.29-17.26-11.46-24.32-28.84-26.78-36,3.17,6.37,12.36,22.72,31.3,32.13,17.43,8.66,33.29,6.49,43.57,5.22A94.29,94.29,0,0,0,339.33,502.11Z" transform="translate(-181.29 -300.27)"/><path class="cls-1" d="M377.86,477l-1,6.57c-.16.17-.24.35-.41.53a105.54,105.54,0,0,1-31.94,27.32l-5.15-9.32A91.69,91.69,0,0,0,364.86,480a94.85,94.85,0,0,0,10.73-17A21.37,21.37,0,0,1,377.86,477Z" transform="translate(-181.29 -300.27)"/><path class="cls-1" d="M389.69,365.74c-1.94,1.87-10.39,6.21-11.4,6.48a105,105,0,0,1,8.7,47.72,100.81,100.81,0,0,1-5.49,27.86,23,23,0,0,0,7.1-9.58l7.09-17.57-2.95,18.54a22.25,22.25,0,0,0,1.18,11.71,117.2,117.2,0,0,0-4.23-85.16Z" transform="translate(-181.29 -300.27)"/><path class="cls-1" d="M282.47,308.83c-.49,8.44-1.31,17.45-2.57,26.95-1.55,11.7-3.56,22.5-5.78,32.35,3.23-9.75,6.36-20.32,9.2-31.67,2.42-9.64,4.39-18.87,6-27.63a96.57,96.57,0,0,1,40,10.33,102.07,102.07,0,0,1,36.24,31l9.63-7.16a110.8,110.8,0,0,0-39.66-32.37,101.36,101.36,0,0,0-88.79-.23,111.57,111.57,0,0,0-39.37,31.45,114,114,0,0,1,41.93-26.73A109,109,0,0,1,282.47,308.83Z" transform="translate(-181.29 -300.27)"/><path class="cls-2" d="M296,445.54a89.48,89.48,0,0,1-15.84,44.78,82.83,82.83,0,0,1-28,25,61.5,61.5,0,0,0,11.28,4.11,60.27,60.27,0,0,0,11.71,1.82,64.47,64.47,0,0,1,5.74-18.79c3.09-6.33,5.62-8.66,9-15.35A72,72,0,0,0,296,469.87c2.75,9,1.86,15.28.59,19.24-2.29,7.16-6.7,9.79-12.11,20.4a79.09,79.09,0,0,0-4.88,11.86l5.77-.35,4.85-.29a98.48,98.48,0,0,0,9.68-31A100.31,100.31,0,0,0,296,445.54Z" transform="translate(-181.29 -300.27)"/><path class="cls-2" d="M220.76,455.93c-2.71-2.67.29-10.1.52-10.66.71-1.72,3.42-7.59,19.27-15.1,9.38-4.46,21.85-8.77,22.95-6.56.46.93-1.17,2.95-1.27,3.07-1.25,1.52-2.72,1.81-4.37,2.46-4.12,1.64-7.13,5.17-6.77,5a12,12,0,0,1,6.25-1.59c2,.09,2.92.72,5.08.53a11.11,11.11,0,0,0,4.5-1.45c4.77-2.56,6.69-7.92,7.12-9.22-.54-3.16-1.76-4.15-2.44-4.53-1.68-.92-3.46.07-8.79,2.07-2.13.79-4.32,1.43-6.44,2.25-11.29,4.35-10.91,4.09-14,5.33-16.06,6.54-24.13,9.77-28.15,15.72-2,3-5,8.93-4.6,19.22a25.65,25.65,0,0,0,17.63-.27c9.73-3.8,13.86-12.33,14.7-14.17C239.37,449.86,224.89,460,220.76,455.93Z" transform="translate(-181.29 -300.27)"/><path class="cls-2" d="M260.62,454a32.8,32.8,0,0,1,9.71,10.63c7.2,12.53,4.09,25.21,3.51,27.39a81.42,81.42,0,0,0,15.45-29.31A84.68,84.68,0,0,0,291,423.14a81.61,81.61,0,0,1-2.41,23.63A79.66,79.66,0,0,1,279,469.33c-2.26-4.47-6.76-11.84-14.25-16.41a35.77,35.77,0,0,0-4.31-2.21,30.63,30.63,0,0,0-3.6-1.28l-.1-.2a14.47,14.47,0,0,1-1.43-4.58,15.26,15.26,0,0,1,4.42-5c5-3.53,9.42-1.5,13.61-4.51,1.75-1.26,3.82-3.66,4.95-8.68a35.74,35.74,0,0,1-5.41,4.92,34.56,34.56,0,0,1-6.18,3.62c-5.54,2.49-7.78,1.6-11.33,3-2.76,1.09-6.36,3.61-9.57,10a36.09,36.09,0,0,1,7.29,2A36.63,36.63,0,0,1,260.62,454Z" transform="translate(-181.29 -300.27)"/><path class="cls-2" d="M386.44,351.58c-3.08-4.65-4.67-7-7.49-7.52s-5.15.89-6.64,1.78a15.32,15.32,0,0,0-5.74,6.2q.33,5.7.65,11.4A22,22,0,0,1,361.6,370a22.45,22.45,0,0,1-6.54,3.42c-1.89.65-2.17.49-3.91,1a26.29,26.29,0,0,0-9,5.12c-4,3.15-3.56,4.09-6.12,6-5.57,4.2-8.81.32-15.54,3.84s-6.67,8.09-13.22,10c-4,1.15-5.59.37-9.51.79s-9.22,2.19-15.35,8.08a9.17,9.17,0,0,0,1-4.64c-.27-3.87-3.47-6.29-2.59-7.54.77-1.1,3.51.49,4.3-.79,1-1.63-1.16-4.56-1.52-5-2.13-2.87-4.15-2.35-5.31-4.63-1.06-2.06.18-3.28-.19-6.3-.49-4.11-3.36-6.87-4.8-8.26a17.71,17.71,0,0,0-12.53-4.76,18.74,18.74,0,0,0-12.58,5.78c-.79.78-7.52,7.62-6.17,15.25.6,3.39,2.53,6,6.66,11,2.74,3.31,4.24,4.66,5.58,7.88a20.29,20.29,0,0,1,1.54,7.69,13.32,13.32,0,0,0,4.9-5.78c.33-.74,3.2-7.34-.32-11-2.06-2.12-5.58-2.49-8.85-1.13a15.12,15.12,0,0,0,5.71-7.94c1.62-6.14-1.88-12.22-1.08-12.61s2.73,5.72,7.77,8.61c3.52,2,7.46,1.84,10.64,1.18-5.5,4.21-6.38,7.28-6.2,9.27.39,4.34,5.94,5.91,5.68,9.86-.25,3.76-5.62,5.17-4.95,7.11.8,2.3,5.91,2.84,9.38,1a9.34,9.34,0,0,0,2.2-1.72,41.89,41.89,0,0,1,7-4.26,10.37,10.37,0,0,1,2.65.82c2.36,1.24,4.4,4.72,4.59,13.32a21.19,21.19,0,0,0,4.79-5c2.86-4.23,1.8-6,4.29-8.51s4.08-1.6,8.21-5.12c.69-.59,2.92-2.5,2.6-3.09h0a17.49,17.49,0,0,1,5-5.56c4.58-3.15,7.63-1.85,11.85-2.4a7.88,7.88,0,0,1,4.2,2.64c2.06,3,.45,7.61.28,9.56-1.36,1.44-3,3.3-6,6.19a127.26,127.26,0,0,1-13.16,10.94,45.83,45.83,0,0,0,14.64-9.39c4.85-4.67,5.18-7.2,9.74-10,6.22-3.79,8.13-1.92,13.58-5.43a23,23,0,0,0,2.5-1.89c3.21-2.82,8.4-10.68,10.66-13.76a49.36,49.36,0,0,1,7.67-8.28,30.89,30.89,0,0,0,8.16-2.95c3.88-2.05,6.53-3.45,7.27-6.14S390,357,386.44,351.58Zm-21.94,28.9a38.51,38.51,0,0,0-3.39,4.33c-1.74,2.61-1.91,3.76-4.88,6.41-4.38,3.91-7,3.49-12,6-1.83-.28-4.57-.68-5.65-2.59s.05-4.92.61-6.78c3.75-2.74,3.38-5.39,9.54-8.84s8.52-1.86,12.76-5.74c4.47-4.09,6.85-7.71,7.29-7.38s-1.88,4.64-5.07,9a55.2,55.2,0,0,1-4.63,5.54,54.59,54.59,0,0,1-6,5.46,18.2,18.2,0,0,0,9.18-5.81c2-2.4,2.51-4.52,5.4-7,2.48-2.09,5.41-3.34,5.73-2.87S370.33,373.73,364.5,380.48Z" transform="translate(-181.29 -300.27)"/><path class="cls-2" d="M328.24,478.14a38.3,38.3,0,0,1-2.83,16.2,36.43,36.43,0,0,1-11.43,15,57.76,57.76,0,0,0,6.64-15c3-10.52,2.18-19.18,1.23-28.48a120.93,120.93,0,0,0-6.31-28.11,27.49,27.49,0,0,1,.13-9.43,26.81,26.81,0,0,1,1.86-5.89c-.78.9-1.57,1.9-2.38,3s-1.36,1.92-1.95,2.83a14.14,14.14,0,0,1-5.27,2.84c-3.13.87-4.66,0-6.12.72-1.75.84-3.29,3.87-2.7,13.13a14.08,14.08,0,0,1,1-5.65c.26-.63,2.68-6.4,6.37-6.47,2,0,3.7,1.57,5.35,3.91,7.9,11.19,7.1,28.91,7.1,28.91a76.92,76.92,0,0,1-8.66,31.57,87.12,87.12,0,0,1-16.67,23.12A82.94,82.94,0,0,0,318,514.14a85.53,85.53,0,0,0,21.95-13.54A89.35,89.35,0,0,0,334.39,488,88.39,88.39,0,0,0,328.24,478.14Z" transform="translate(-181.29 -300.27)"/><path class="cls-2" d="M299.11,444.94a14.47,14.47,0,0,0,.13,1.73C299.18,446.07,299.14,445.49,299.11,444.94Z" transform="translate(-181.29 -300.27)"/><path class="cls-3" d="M211.26,421.14l-4.79-10a13.44,13.44,0,0,0-14.75-7.6l-10.43,2.11,9.48-5A14.54,14.54,0,0,0,198,385.18l-2-10.94,4.78,9.95a13.46,13.46,0,0,0,14.76,7.61L226,389.68l-9.48,5a14.53,14.53,0,0,0-7.24,15.49Z" transform="translate(-181.29 -300.27)"/><path class="cls-3" d="M221.5,360.17,216.71,358a6.51,6.51,0,0,0-7.88,1.95l-3.34,4.22,2.12-5a7.28,7.28,0,0,0-1.85-8.27l-4-3.51,4.79,2.22a6.5,6.5,0,0,0,7.88-1.94l3.34-4.22-2.12,5a7.28,7.28,0,0,0,1.85,8.27Z" transform="translate(-181.29 -300.27)"/><path class="cls-3" d="M247.69,504.77a26.08,26.08,0,0,1-14.07-13.57c-5.83-13.44,2.45-26.16,2.85-26.75a35.29,35.29,0,0,0-1.71,20.36A34,34,0,0,0,247.69,504.77Z" transform="translate(-181.29 -300.27)"/><path class="cls-3" d="M375.6,493l2.53-16c1.46-9.18-2.37-17.59-9.36-20.6l-12.2-5.25,13.4.92c7.68.53,15.4-5.09,18.9-13.78L395,423.17l-2.53,16c-1.46,9.18,2.36,17.59,9.36,20.6L414,465l-13.39-.92c-7.68-.53-15.4,5.09-18.9,13.78Z" transform="translate(-181.29 -300.27)"/><path class="cls-3" d="M356.82,361.84c-16.9,10.91-53.74,34.15-57.88,36.28,13.94-9.76,28.14-19.69,42.76-29.45,8.11-5.41,16.14-10.64,24.17-15.88a3,3,0,0,1,.42,1.69,3.42,3.42,0,0,1-.17.88l-.09.09C363,357.58,359.87,359.71,356.82,361.84Z" transform="translate(-181.29 -300.27)"/><path class="cls-3" d="M398.06,331.15c-1.86,3.37-3.72,6.74-5.58,10.2-2.53.35-5,.71-7.52,1.15-1.1.71-2.19,1.6-3.29,2.31l-1.27-.8a3.53,3.53,0,0,0-.93-.35c1.35-1.07,2.62-2.05,4-3.11,1-1.95,2-3.9,3-5.85C390.29,333.45,394.17,332.3,398.06,331.15Z" transform="translate(-181.29 -300.27)"/><path class="cls-3" d="M244.69,523.83a87.94,87.94,0,0,0,35.56,12.35c18.25,2.11,32.22-2.29,42.1-5.53a124.68,124.68,0,0,0,40-22.09c-9,9.25-25.19,22.87-48.42,29.28-8.78,2.42-21.22,5.69-37,2.37A72,72,0,0,1,244.69,523.83Z" transform="translate(-181.29 -300.27)"/><path class="cls-3" d="M297,450.35l-4.27-8.54c-2.45-4.9-7.36-7.35-12-6l-8.14,2.36,7.25-4.88c4.17-2.8,6.2-8.52,5-14l-2.13-9.55,4.27,8.54c2.45,4.91,7.37,7.35,12,6l8.14-2.36-7.25,4.88c-4.17,2.8-6.2,8.52-5,14Z" transform="translate(-181.29 -300.27)"/><path class="cls-3" d="M265.86,400.78l-2.13-4.25a5.16,5.16,0,0,0-6-3l-4.05,1.18,3.6-2.43a6.65,6.65,0,0,0,2.48-7l-1.06-4.75,2.12,4.25a5.16,5.16,0,0,0,6,3l4.05-1.18-3.61,2.43a6.67,6.67,0,0,0-2.47,7Z" transform="translate(-181.29 -300.27)"/></svg>