<svg id="Layer_1" data-name="Layer 1" xmlns="http://www.w3.org/2000/svg" viewBox="0 0 217.07 93.15"><defs><style> .cls-1{fill:#3651a1;}.cls-2{fill:#2fa8df;}.cls-3{fill:#3d8aca;}</style></defs><path  fill="#ffff" class="cls-1" d="M317.42,219.37l-10.37-2.56c2.87,1.05,5.85,2.05,8.9,3.05l4.88,1.51-3.08-1.32,3.13.21Z" transform="translate(-157.55 -174.34)"/><path fill="#ffff" class="cls-1" d="M313.05,235.65l1.56,2.82A30.38,30.38,0,0,1,300,243.54c-4,.3-9.59.82-15.07-2.82a21.58,21.58,0,0,1-8.13-10.93,21.59,21.59,0,0,0,9.51,9.76c5.29,2.63,10.11,2,13.23,1.59A28.56,28.56,0,0,0,313.05,235.65Z" transform="translate(-157.55 -174.34)"/><path fill="#ffff" class="cls-1" d="M324.76,228l-.31,2c-.05,0-.08.11-.13.16a32.13,32.13,0,0,1-9.7,8.3l-1.57-2.83a28,28,0,0,0,7.76-6.71,29.84,29.84,0,0,0,3.26-5.17A6.56,6.56,0,0,1,324.76,228Z" transform="translate(-157.55 -174.34)"/><path fill="#ffff" class="cls-1" d="M328.35,194.23a18.61,18.61,0,0,1-3.46,2,31.93,31.93,0,0,1,2.64,14.5,30.6,30.6,0,0,1-1.67,8.46,7,7,0,0,0,2.16-2.91l2.15-5.34-.89,5.63a6.73,6.73,0,0,0,.35,3.56,35.53,35.53,0,0,0-1.28-25.87Z" transform="translate(-157.55 -174.34)"/><path fill="#ffff" class="cls-1" d="M295.78,176.94c-.15,2.57-.4,5.3-.78,8.19-.47,3.55-1.08,6.84-1.76,9.83,1-3,1.93-6.18,2.8-9.62.73-2.93,1.33-5.74,1.82-8.4A29.39,29.39,0,0,1,310,180.08a31,31,0,0,1,11,9.42l2.93-2.18a33.76,33.76,0,0,0-12.05-9.83,30.79,30.79,0,0,0-27-.07A34.06,34.06,0,0,0,273,187a34.69,34.69,0,0,1,12.74-8.12A33.52,33.52,0,0,1,295.78,176.94Z" transform="translate(-157.55 -174.34)"/><path class="cls-2" d="M299.89,218.47a27.12,27.12,0,0,1-4.81,13.6,25.13,25.13,0,0,1-8.51,7.59,18.81,18.81,0,0,0,3.43,1.25,17.53,17.53,0,0,0,3.55.55,19.39,19.39,0,0,1,1.75-5.7c.93-1.93,1.7-2.64,2.73-4.67a21.11,21.11,0,0,0,1.86-5.23,9.51,9.51,0,0,1,.18,5.85c-.69,2.17-2,3-3.68,6.19a23.38,23.38,0,0,0-1.48,3.61l1.75-.11,1.48-.09a29.94,29.94,0,0,0,2.94-9.4A30.6,30.6,0,0,0,299.89,218.47Z" transform="translate(-157.55 -174.34)"/><path class="cls-2" d="M277,221.63c-.82-.81.09-3.07.16-3.24.22-.52,1-2.3,5.85-4.59,2.85-1.35,6.64-2.66,7-2,.14.28-.36.89-.39.93a2.78,2.78,0,0,1-1.33.75,5.1,5.1,0,0,0-2.05,1.51,3.56,3.56,0,0,1,1.9-.48,10.55,10.55,0,0,0,1.54.16,3.61,3.61,0,0,0,1.37-.44,5.08,5.08,0,0,0,2.16-2.81c-.17-1-.54-1.26-.74-1.37-.51-.28-1.06,0-2.67.63-.65.24-1.31.43-2,.68-3.43,1.32-3.32,1.24-4.24,1.62-4.88,2-7.33,3-8.56,4.78a9.33,9.33,0,0,0-1.39,5.84,7.85,7.85,0,0,0,5.35-.09,8.46,8.46,0,0,0,4.47-4.3C282.69,219.78,278.29,222.87,277,221.63Z" transform="translate(-157.55 -174.34)"/><path class="cls-2" d="M289.14,221a9.82,9.82,0,0,1,2.95,3.23,11.4,11.4,0,0,1,1.07,8.32,24.72,24.72,0,0,0,4.69-8.91,25.7,25.7,0,0,0,.52-12,25,25,0,0,1-.73,7.18,24.32,24.32,0,0,1-2.91,6.85,12.37,12.37,0,0,0-4.33-5,10,10,0,0,0-1.31-.67,10.23,10.23,0,0,0-1.09-.39l0-.06a4.33,4.33,0,0,1-.44-1.39,4.65,4.65,0,0,1,1.35-1.51c1.52-1.08,2.86-.46,4.13-1.37a4.13,4.13,0,0,0,1.5-2.64,10.86,10.86,0,0,1-1.64,1.5,11,11,0,0,1-1.88,1.1c-1.68.75-2.36.48-3.44.91a5.71,5.71,0,0,0-2.9,3,11.06,11.06,0,0,1,2.21.6A11.32,11.32,0,0,1,289.14,221Z" transform="translate(-157.55 -174.34)"/><path class="cls-2" d="M327.36,189.93c-.93-1.41-1.42-2.12-2.27-2.29a3,3,0,0,0-2,.54,4.64,4.64,0,0,0-1.74,1.89c.06,1.15.13,2.31.19,3.46a6.6,6.6,0,0,1-1.7,2,6.79,6.79,0,0,1-2,1c-.57.19-.66.15-1.19.3a8.13,8.13,0,0,0-2.75,1.56c-1.2,1-1.08,1.24-1.85,1.83-1.7,1.27-2.68.09-4.73,1.16s-2,2.46-4,3a12.92,12.92,0,0,1-2.89.24,7.83,7.83,0,0,0-4.66,2.45,2.81,2.81,0,0,0,.3-1.41c-.08-1.17-1.05-1.91-.78-2.29s1.06.15,1.3-.24-.35-1.38-.46-1.53c-.65-.87-1.26-.71-1.61-1.4s.05-1-.06-1.92a4.31,4.31,0,0,0-1.46-2.51,5.4,5.4,0,0,0-3.8-1.44,5.74,5.74,0,0,0-3.83,1.75c-.24.24-2.28,2.32-1.87,4.64.18,1,.77,1.82,2,3.34a8.88,8.88,0,0,1,1.7,2.4,6,6,0,0,1,.46,2.33,4,4,0,0,0,1.49-1.75c.1-.23,1-2.23-.09-3.34a2.45,2.45,0,0,0-2.69-.34A4.57,4.57,0,0,0,288.1,201c.5-1.86-.57-3.71-.32-3.83s.82,1.74,2.35,2.61a4.55,4.55,0,0,0,3.24.36c-1.68,1.28-1.94,2.21-1.89,2.82.12,1.32,1.81,1.79,1.73,3s-1.71,1.56-1.5,2.15,1.79.87,2.84.29a2.42,2.42,0,0,0,.67-.52,12.29,12.29,0,0,1,2.12-1.29,3,3,0,0,1,.8.25c.72.38,1.34,1.43,1.4,4a6.77,6.77,0,0,0,1.45-1.53c.87-1.28.55-1.82,1.31-2.58s1.23-.49,2.49-1.56c.21-.18.88-.76.79-.94h0a5.28,5.28,0,0,1,1.51-1.69c1.39-1,2.32-.56,3.6-.73a2.44,2.44,0,0,1,1.28.8c.62.9.13,2.32.08,2.91-.41.44-.91,1-1.83,1.88a39.25,39.25,0,0,1-4,3.32,14,14,0,0,0,4.45-2.85c1.47-1.42,1.57-2.19,3-3,1.89-1.15,2.47-.58,4.12-1.65a7.27,7.27,0,0,0,.76-.58,32.83,32.83,0,0,0,3.24-4.18,14.92,14.92,0,0,1,2.33-2.51,9.4,9.4,0,0,0,2.48-.9c1.18-.62,2-1.05,2.21-1.86S328.45,191.57,327.36,189.93Zm-6.66,8.78a10.7,10.7,0,0,0-1,1.31,6.67,6.67,0,0,1-1.49,1.95c-1.33,1.19-2.1,1.06-3.64,1.81-.55-.08-1.39-.2-1.71-.78s0-1.5.18-2.06c1.14-.84,1-1.64,2.9-2.69s2.59-.56,3.88-1.74,2.08-2.34,2.21-2.24a9,9,0,0,1-1.54,2.74,18,18,0,0,1-1.4,1.68,17.44,17.44,0,0,1-1.84,1.66,5.52,5.52,0,0,0,2.78-1.77,11.17,11.17,0,0,1,1.65-2.11c.75-.64,1.64-1,1.74-.87S322.47,196.66,320.7,198.71Z" transform="translate(-157.55 -174.34)"/><path class="cls-2" d="M309.68,228.38a11.59,11.59,0,0,1-.86,4.92,11.11,11.11,0,0,1-3.47,4.54,17.61,17.61,0,0,0,2-4.54,21.54,21.54,0,0,0,.37-8.66,36.46,36.46,0,0,0-1.91-8.53,8.16,8.16,0,0,1,0-2.87,7.58,7.58,0,0,1,.56-1.79c-.24.28-.48.58-.72.91s-.42.58-.6.86a4.23,4.23,0,0,1-1.6.86c-.95.27-1.41,0-1.86.22s-1,1.18-.82,4a4.39,4.39,0,0,1,.31-1.72c.08-.19.81-1.94,1.93-2,.6,0,1.13.47,1.63,1.18,2.4,3.4,2.15,8.79,2.15,8.79a23.29,23.29,0,0,1-2.63,9.59,26.23,26.23,0,0,1-5.06,7,25.08,25.08,0,0,0,7.41-1.88,26.22,26.22,0,0,0,6.67-4.11,27.28,27.28,0,0,0-1.69-3.84A26.34,26.34,0,0,0,309.68,228.38Z" transform="translate(-157.55 -174.34)"/><path class="cls-2" d="M300.83,218.29c0,.21,0,.39,0,.53C300.86,218.63,300.84,218.46,300.83,218.29Z" transform="translate(-157.55 -174.34)"/><path class="cls-3" d="M274.15,211.06l-1.46-3a4.1,4.1,0,0,0-4.48-2.31l-3.17.65,2.88-1.53a4.38,4.38,0,0,0,2.2-4.7l-.61-3.33,1.45,3a4.12,4.12,0,0,0,4.49,2.31l3.16-.65L275.73,203a4.41,4.41,0,0,0-2.2,4.7Z" transform="translate(-157.55 -174.34)"/><path class="cls-3" d="M277.26,192.54l-1.46-.68a2,2,0,0,0-2.39.6l-1,1.28.64-1.53a2.21,2.21,0,0,0-.56-2.51l-1.23-1.06,1.46.67a2,2,0,0,0,2.39-.59l1-1.28-.64,1.52a2.21,2.21,0,0,0,.56,2.51Z" transform="translate(-157.55 -174.34)"/><path class="cls-3" d="M285.21,236.46a7.91,7.91,0,0,1-4.27-4.12c-1.77-4.08.75-7.94.87-8.12a10.62,10.62,0,0,0-.52,6.18A10.38,10.38,0,0,0,285.21,236.46Z" transform="translate(-157.55 -174.34)"/><path class="cls-3" d="M324.07,232.88l.77-4.85c.44-2.79-.72-5.34-2.85-6.26l-3.7-1.6,4.07.29c2.33.16,4.68-1.55,5.74-4.19l1.85-4.59-.77,4.85c-.44,2.79.72,5.34,2.85,6.26l3.7,1.59-4.07-.28c-2.33-.16-4.68,1.55-5.74,4.19Z" transform="translate(-157.55 -174.34)"/><path class="cls-3" d="M318.37,193.05c-5.14,3.31-16.33,10.37-17.59,11,4.24-3,8.55-6,13-8.95,2.46-1.64,4.9-3.23,7.34-4.82a.9.9,0,0,1,.13.51,1.28,1.28,0,0,1-.05.27l0,0C320.24,191.75,319.29,192.4,318.37,193.05Z" transform="translate(-157.55 -174.34)"/><path class="cls-3" d="M330.89,183.72c-.56,1-1.13,2.05-1.69,3.1-.77.11-1.52.22-2.29.35-.33.22-.66.49-1,.7l-.38-.24a1.72,1.72,0,0,0-.29-.11l1.21-.94c.31-.59.62-1.19.9-1.78C328.53,184.42,329.71,184.07,330.89,183.72Z" transform="translate(-157.55 -174.34)"/><path class="cls-3" d="M284.3,242.25A26.74,26.74,0,0,0,295.1,246a28.47,28.47,0,0,0,12.79-1.68,38,38,0,0,0,12.17-6.71,33.21,33.21,0,0,1-14.71,8.89,22.55,22.55,0,0,1-11.24.72A22,22,0,0,1,284.3,242.25Z" transform="translate(-157.55 -174.34)"/><path class="cls-3" d="M300.19,219.93l-1.29-2.59a3.16,3.16,0,0,0-3.66-1.82l-2.47.72,2.2-1.49a4.08,4.08,0,0,0,1.51-4.25l-.65-2.9,1.3,2.59a3.14,3.14,0,0,0,3.66,1.82l2.47-.71-2.2,1.48a4.07,4.07,0,0,0-1.51,4.25Z" transform="translate(-157.55 -174.34)"/><path class="cls-3" d="M290.73,204.88l-.64-1.3a1.56,1.56,0,0,0-1.82-.9L287,203l1.09-.74a2,2,0,0,0,.76-2.12l-.33-1.44.65,1.29a1.57,1.57,0,0,0,1.82.91l1.23-.36-1.1.74a2,2,0,0,0-.75,2.11Z" transform="translate(-157.55 -174.34)"/><path class="cls-2" d="M261.35,230.93V178.52h3.95v52.41Z" transform="translate(-157.55 -174.34)"/><path class="cls-2" d="M336,230.93V178.52h3.4l28.47,44v-44h4v52.41h-3.41L340,186.45v44.48Z" transform="translate(-157.55 -174.34)"/><path class="cls-2" d="M235.2,208.1a17.59,17.59,0,0,0,7.4-2.34,13.24,13.24,0,0,0,4.81-4.94,14.29,14.29,0,0,0,1.68-7,16.58,16.58,0,0,0-1.79-7.91,12.7,12.7,0,0,0-5.1-5.27,15.9,15.9,0,0,0-7.89-1.87H217.63v4.07h4v0H234c3.82,0,6.63,1,8.45,3a11.45,11.45,0,0,1,2.72,8,9.59,9.59,0,0,1-3.15,7.55q-3.15,2.78-8.83,2.78H221.58v0h-4v27.06h4v-23h8.78l25.29,36.35h5Z" transform="translate(-157.55 -174.34)"/><path class="cls-2" d="M205.11,194a27.44,27.44,0,0,0-5.26-8.7,24.31,24.31,0,0,0-7.87-5.84,22.2,22.2,0,0,0-7.75-2v4.2a19.25,19.25,0,0,1,8.45,2.8,20.71,20.71,0,0,1,7.46,8.09,25.46,25.46,0,0,1,2.77,12.16,26.69,26.69,0,0,1-1.6,9.47,22.16,22.16,0,0,1-4.42,7.33,19.79,19.79,0,0,1-6.58,4.69,19.59,19.59,0,0,1-6.08,1.56V232a22.62,22.62,0,0,0,7.75-2,24.46,24.46,0,0,0,7.87-5.79,26.85,26.85,0,0,0,5.26-8.69A30.12,30.12,0,0,0,207,204.72,29.78,29.78,0,0,0,205.11,194Zm-40.46-8.81a27.19,27.19,0,0,0-5.23,8.68,32.12,32.12,0,0,0,0,21.6,27.13,27.13,0,0,0,5.23,8.69,24.24,24.24,0,0,0,7.87,5.79,22.71,22.71,0,0,0,7.54,2v-4.2a19.28,19.28,0,0,1-8.19-2.77,20.75,20.75,0,0,1-7.45-8.09,25.48,25.48,0,0,1-2.78-12.17,26.69,26.69,0,0,1,1.6-9.49,22.24,22.24,0,0,1,4.43-7.3,19.68,19.68,0,0,1,6.57-4.7,19.24,19.24,0,0,1,5.82-1.53v-4.21a22.94,22.94,0,0,0-7.54,2A24,24,0,0,0,164.65,185.22Z" transform="translate(-157.55 -174.34)"/><path class="cls-2" d="M161.54,267.49a3.77,3.77,0,0,1-1.85-.43,3.12,3.12,0,0,1-1.23-1.24,4.14,4.14,0,0,1-.18-3.3,3.3,3.3,0,0,1,1.85-1.86,3.66,3.66,0,0,1,1.42-.26,4.08,4.08,0,0,1,1.34.19,3,3,0,0,1,1,.56l-.56.88a2.16,2.16,0,0,0-.75-.44,3.09,3.09,0,0,0-.94-.14,3,3,0,0,0-1,.17,2.43,2.43,0,0,0-.78.5,2.2,2.2,0,0,0-.49.79,2.78,2.78,0,0,0-.18,1,2.86,2.86,0,0,0,.31,1.35,2.12,2.12,0,0,0,.88.85,2.79,2.79,0,0,0,1.34.29,3.3,3.3,0,0,0,1-.15,2.78,2.78,0,0,0,.9-.5l.5.92a3.52,3.52,0,0,1-1.12.59A4.75,4.75,0,0,1,161.54,267.49Z" transform="translate(-157.55 -174.34)"/><path class="cls-2" d="M172.13,267.49a3.67,3.67,0,0,1-1.42-.27,3.43,3.43,0,0,1-1.14-.75,3.24,3.24,0,0,1-.75-1.13,3.76,3.76,0,0,1,0-2.8,3.33,3.33,0,0,1,.75-1.13,3.43,3.43,0,0,1,1.14-.75,3.86,3.86,0,0,1,1.42-.26,3.62,3.62,0,0,1,1.41.27,3.31,3.31,0,0,1,1.14.76,3.36,3.36,0,0,1,.76,1.13,3.71,3.71,0,0,1,0,2.78,3.26,3.26,0,0,1-.76,1.13,3.43,3.43,0,0,1-1.14.75A3.62,3.62,0,0,1,172.13,267.49Zm0-1a2.77,2.77,0,0,0,1-.17,2.18,2.18,0,0,0,.78-.52,2.24,2.24,0,0,0,.51-.79,2.91,2.91,0,0,0-.13-2.36,2.32,2.32,0,0,0-.88-.88,2.46,2.46,0,0,0-1.24-.31,2.77,2.77,0,0,0-1,.17,2.4,2.4,0,0,0-.78.51,2.57,2.57,0,0,0-.52.8,2.82,2.82,0,0,0-.18,1,2.57,2.57,0,0,0,.32,1.33,2.32,2.32,0,0,0,.88.88A2.46,2.46,0,0,0,172.13,266.46Z" transform="translate(-157.55 -174.34)"/><path class="cls-2" d="M180.94,267.35v-6.81H182l2.77,4.52h-.42l2.67-4.52h1v6.81H187l0-5.36.21.07-2.32,3.82h-.79l-2.36-3.82.17-.07,0,5.36Z" transform="translate(-157.55 -174.34)"/><path class="cls-2" d="M193.72,267.35v-6.81h1.05l2.78,4.52h-.43l2.68-4.52h1v6.81h-1.06V262l.21.07-2.31,3.82h-.8l-2.36-3.82.18-.07v5.36Z" transform="translate(-157.55 -174.34)"/><path class="cls-2" d="M209.2,267.49a2.89,2.89,0,0,1-1.53-.37,2.4,2.4,0,0,1-.92-1,3.3,3.3,0,0,1-.3-1.43v-4.15h1.09v4.14A1.79,1.79,0,0,0,208,266a1.88,1.88,0,0,0,2.42,0,1.79,1.79,0,0,0,.44-1.34v-4.14H212v4.15a3.33,3.33,0,0,1-.31,1.43,2.4,2.4,0,0,1-.92,1A2.85,2.85,0,0,1,209.2,267.49Z" transform="translate(-157.55 -174.34)"/><path class="cls-2" d="M217.57,267.35v-6.81h1l3.43,4.95v-4.95h1.06v6.81h-1l-3.43-5v5Z" transform="translate(-157.55 -174.34)"/><path class="cls-2" d="M228.76,267.35v-6.81h1.09v6.81Z" transform="translate(-157.55 -174.34)"/><path class="cls-2" d="M238.62,267.49a3.75,3.75,0,0,1-1.85-.43,3.21,3.21,0,0,1-1.24-1.24,3.83,3.83,0,0,1-.44-1.87,3.91,3.91,0,0,1,.26-1.43,3.42,3.42,0,0,1,.74-1.12,3.18,3.18,0,0,1,1.12-.74,3.63,3.63,0,0,1,1.42-.26,4.13,4.13,0,0,1,1.34.19,3,3,0,0,1,1,.56l-.56.88a2.35,2.35,0,0,0-.75-.44,3.14,3.14,0,0,0-.94-.14,3,3,0,0,0-1,.17,2.32,2.32,0,0,0-.78.5,2.22,2.22,0,0,0-.5.79,3,3,0,0,0-.17,1,2.75,2.75,0,0,0,.31,1.35,2.16,2.16,0,0,0,.87.85,2.85,2.85,0,0,0,1.34.29,3.3,3.3,0,0,0,1-.15,2.68,2.68,0,0,0,.9-.5l.51.92a3.63,3.63,0,0,1-1.12.59A4.75,4.75,0,0,1,238.62,267.49Z" transform="translate(-157.55 -174.34)"/><path class="cls-2" d="M245.4,267.35l2.65-6.81h1.18l2.71,6.81h-1.23l-.63-1.63H247.2l-.6,1.63Zm2.08-2.56h2.31l-1.18-3Z" transform="translate(-157.55 -174.34)"/><path class="cls-2" d="M257.67,267.35v-5.81h-1.92v-1h4.92v1h-1.91v5.81Z" transform="translate(-157.55 -174.34)"/><path class="cls-2" d="M265.71,267.35v-6.81h1.09v6.81Z" transform="translate(-157.55 -174.34)"/><path class="cls-2" d="M275.62,267.49a3.67,3.67,0,0,1-1.42-.27,3.43,3.43,0,0,1-1.14-.75,3.26,3.26,0,0,1-.76-1.13,3.75,3.75,0,0,1-.26-1.4,3.79,3.79,0,0,1,.26-1.4,3.36,3.36,0,0,1,.76-1.13,3.43,3.43,0,0,1,1.14-.75,3.86,3.86,0,0,1,1.42-.26,3.62,3.62,0,0,1,1.41.27,3.31,3.31,0,0,1,1.14.76,3.36,3.36,0,0,1,.76,1.13,3.71,3.71,0,0,1,0,2.78,3.26,3.26,0,0,1-.76,1.13,3.43,3.43,0,0,1-1.14.75A3.62,3.62,0,0,1,275.62,267.49Zm0-1a2.77,2.77,0,0,0,1-.17,2.14,2.14,0,0,0,.77-.52,2.27,2.27,0,0,0,.52-.79,2.91,2.91,0,0,0-.13-2.36,2.32,2.32,0,0,0-.88-.88,2.46,2.46,0,0,0-1.24-.31,2.77,2.77,0,0,0-1,.17,2.29,2.29,0,0,0-.78.51,2.57,2.57,0,0,0-.52.8,2.82,2.82,0,0,0-.19,1,2.57,2.57,0,0,0,.33,1.33,2.32,2.32,0,0,0,.88.88A2.46,2.46,0,0,0,275.62,266.46Z" transform="translate(-157.55 -174.34)"/><path class="cls-2" d="M284.43,267.35v-6.81h1l3.44,4.95v-4.95H290v6.81h-1l-3.43-5v5Z" transform="translate(-157.55 -174.34)"/><path class="cls-2" d="M303.74,267.49a2.45,2.45,0,0,1-1.14-.25,2,2,0,0,1-.78-.69,1.83,1.83,0,0,1-.28-1,1.67,1.67,0,0,1,.19-.79,2.13,2.13,0,0,1,.55-.66,3.06,3.06,0,0,1,.85-.49,4.36,4.36,0,0,1-.48-.55,1.89,1.89,0,0,1-.25-.49,1.72,1.72,0,0,1-.07-.52,1.45,1.45,0,0,1,.25-.83,1.83,1.83,0,0,1,.67-.59,1.93,1.93,0,0,1,.93-.22,2.24,2.24,0,0,1,.95.2,1.67,1.67,0,0,1,.66.57,1.48,1.48,0,0,1,.24.84,1.45,1.45,0,0,1-.38,1,3.62,3.62,0,0,1-1.12.79l1.44,1.48a4.52,4.52,0,0,0,.52-.81,7.38,7.38,0,0,0,.44-1.07l.87.35a6.37,6.37,0,0,1-.33.77,6.93,6.93,0,0,1-.43.75,4.76,4.76,0,0,1-.48.65l1.36,1.46h-1.25l-.74-.78a3.34,3.34,0,0,1-1,.68A3,3,0,0,1,303.74,267.49Zm.07-.9a2.06,2.06,0,0,0,.81-.17,2.28,2.28,0,0,0,.72-.5l-1.64-1.7a1.85,1.85,0,0,0-.85.53,1.15,1.15,0,0,0-.29.76,1,1,0,0,0,.33.78A1.34,1.34,0,0,0,303.81,266.59Zm.17-3.37a2.18,2.18,0,0,0,.83-.5.92.92,0,0,0,.27-.65.81.81,0,0,0-.24-.6.9.9,0,0,0-.65-.24,1,1,0,0,0-.64.23.73.73,0,0,0-.26.59,1.11,1.11,0,0,0,.15.55A3.73,3.73,0,0,0,304,263.22Z" transform="translate(-157.55 -174.34)"/><path class="cls-2" d="M319.34,267.35v-6.81h4.4v1h-3.31v1.84h2.86v.91h-2.86v2.13h3.34v1Z" transform="translate(-157.55 -174.34)"/><path class="cls-2" d="M331,267.35l-2.61-6.81h1.23l2,5.35,1.91-5.35h1.2l-2.54,6.81Z" transform="translate(-157.55 -174.34)"/><path class="cls-2" d="M339.5,267.35v-6.81h4.4v1h-3.31v1.84h2.86v.91h-2.86v2.13h3.34v1Z" transform="translate(-157.55 -174.34)"/><path class="cls-2" d="M349.34,267.35v-6.81h1l3.44,4.95v-4.95h1.06v6.81h-1l-3.43-5v5Z" transform="translate(-157.55 -174.34)"/><path class="cls-2" d="M361.83,267.35v-5.81h-1.91v-1h4.92v1h-1.92v5.81Z" transform="translate(-157.55 -174.34)"/><path class="cls-2" d="M372.09,267.49a4.61,4.61,0,0,1-1.38-.2,3.09,3.09,0,0,1-1.13-.58l.53-.83a2.31,2.31,0,0,0,.57.36,2.94,2.94,0,0,0,.69.23,3.53,3.53,0,0,0,.72.08,2,2,0,0,0,1.08-.25.83.83,0,0,0,.41-.74.8.8,0,0,0-.28-.62,2.76,2.76,0,0,0-1-.47l-.7-.2a3.1,3.1,0,0,1-1.4-.73,1.57,1.57,0,0,1-.44-1.14,1.86,1.86,0,0,1,.18-.82,1.92,1.92,0,0,1,.51-.63,2.58,2.58,0,0,1,.79-.41,3.43,3.43,0,0,1,1-.14,4,4,0,0,1,1.27.2,2.71,2.71,0,0,1,1,.54l-.56.8a2.18,2.18,0,0,0-.49-.32,2.65,2.65,0,0,0-.6-.21,2.82,2.82,0,0,0-.65-.08,2,2,0,0,0-.72.12,1.12,1.12,0,0,0-.49.35.89.89,0,0,0-.17.54.78.78,0,0,0,.11.41,1.08,1.08,0,0,0,.41.32,5.3,5.3,0,0,0,.78.29l.74.22a3.07,3.07,0,0,1,1.38.72,1.57,1.57,0,0,1,.44,1.15,1.91,1.91,0,0,1-.3,1.07,2.09,2.09,0,0,1-.87.72A3.35,3.35,0,0,1,372.09,267.49Z" transform="translate(-157.55 -174.34)"/></svg>