<svg id="Layer_1" data-name="Layer 1" xmlns="http://www.w3.org/2000/svg" viewBox="0 0 217.14 93.16"><path d="M159.87,45,149.5,42.47c2.87,1.05,5.85,2.05,8.9,3.05L163.28,47l-3.08-1.32,3.13.21Z" transform="translate(0 0)"/><path d="M155.5,61.31l1.56,2.82a30.37,30.37,0,0,1-14.61,5.07c-4,.3-9.59.82-15.07-2.82a21.56,21.56,0,0,1-8.13-10.93,21.59,21.59,0,0,0,9.51,9.76c5.29,2.63,10.11,2,13.23,1.59A28.54,28.54,0,0,0,155.5,61.31Z" transform="translate(0 0)"/><path d="M167.21,53.66l-.31,2c-.05,0-.08.11-.13.16a32.1,32.1,0,0,1-9.7,8.3l-1.57-2.83a27.88,27.88,0,0,0,7.76-6.71,30.2,30.2,0,0,0,3.26-5.17A6.61,6.61,0,0,1,167.21,53.66Z" transform="translate(0 0)"/><path d="M170.8,19.89a18.64,18.64,0,0,1-3.46,2A32,32,0,0,1,170,36.39a30.61,30.61,0,0,1-1.67,8.46,7,7,0,0,0,2.16-2.91l2.15-5.34-.89,5.63a6.65,6.65,0,0,0,.35,3.56,35.53,35.53,0,0,0-1.28-25.87Z" transform="translate(0 0)"/><path d="M138.23,2.6c-.15,2.57-.4,5.3-.78,8.19-.47,3.55-1.08,6.84-1.76,9.83,1-3,1.93-6.18,2.8-9.62.73-2.93,1.33-5.74,1.82-8.4a29.31,29.31,0,0,1,12.14,3.14,31,31,0,0,1,11,9.42L166.38,13a33.71,33.71,0,0,0-12-9.83,30.8,30.8,0,0,0-27-.07,34,34,0,0,0-11.88,9.58,34.74,34.74,0,0,1,12.74-8.12A33.42,33.42,0,0,1,138.23,2.6Z" transform="translate(0 0)"/><path d="M142.34,44.13a27.2,27.2,0,0,1-4.81,13.6A25.1,25.1,0,0,1,129,65.32a18.29,18.29,0,0,0,3.43,1.25,17.73,17.73,0,0,0,3.55.55,19.63,19.63,0,0,1,1.75-5.7c.93-1.93,1.7-2.64,2.73-4.67a21,21,0,0,0,1.86-5.23,9.51,9.51,0,0,1,.18,5.85c-.69,2.17-2,3-3.68,6.19a23.6,23.6,0,0,0-1.48,3.61l1.75-.11,1.48-.09a29.92,29.92,0,0,0,2.94-9.4A30.61,30.61,0,0,0,142.34,44.13Z" transform="translate(0 0)"/><path d="M119.45,47.29c-.82-.81.09-3.07.16-3.24.22-.52,1-2.3,5.85-4.59,2.85-1.35,6.64-2.66,7-2,.14.28-.36.89-.39.93a2.77,2.77,0,0,1-1.33.75,5,5,0,0,0-2.05,1.51,3.61,3.61,0,0,1,1.9-.48,11.32,11.32,0,0,0,1.54.16,3.5,3.5,0,0,0,1.37-.44,5.1,5.1,0,0,0,2.16-2.81c-.17-1-.54-1.26-.74-1.37-.51-.28-1.06,0-2.67.63-.65.24-1.31.43-2,.68-3.43,1.32-3.32,1.24-4.24,1.62-4.88,2-7.33,3-8.56,4.78a9.37,9.37,0,0,0-1.39,5.84,7.81,7.81,0,0,0,5.35-.09,8.46,8.46,0,0,0,4.47-4.3C125.14,45.44,120.74,48.53,119.45,47.29Z" transform="translate(0 0)"/><path d="M131.59,46.66a9.92,9.92,0,0,1,2.95,3.23,11.43,11.43,0,0,1,1.07,8.32,24.79,24.79,0,0,0,4.69-8.91,25.64,25.64,0,0,0,.52-12,24.81,24.81,0,0,1-.73,7.18,24.1,24.1,0,0,1-2.91,6.85,12.33,12.33,0,0,0-4.33-5,9.51,9.51,0,0,0-1.31-.67,10.9,10.9,0,0,0-1.09-.39v-.06a4.6,4.6,0,0,1-.44-1.39,4.54,4.54,0,0,1,1.35-1.51c1.52-1.08,2.86-.46,4.13-1.37A4.13,4.13,0,0,0,137,38.3a10.62,10.62,0,0,1-1.64,1.5,10.75,10.75,0,0,1-1.88,1.1c-1.68.75-2.36.48-3.44.91a5.7,5.7,0,0,0-2.9,3,10.47,10.47,0,0,1,2.21.6A11.24,11.24,0,0,1,131.59,46.66Z" transform="translate(0 0)"/><path d="M169.81,15.59c-.93-1.41-1.42-2.12-2.27-2.29a3,3,0,0,0-2,.54,4.6,4.6,0,0,0-1.74,1.89c.06,1.15.13,2.31.19,3.46a6.81,6.81,0,0,1-1.7,2,6.82,6.82,0,0,1-2,1c-.57.19-.66.15-1.19.3a8.34,8.34,0,0,0-2.75,1.56c-1.2,1-1.08,1.24-1.85,1.83-1.7,1.27-2.68.09-4.73,1.16s-2,2.46-4,3a12.73,12.73,0,0,1-2.89.24,7.79,7.79,0,0,0-4.66,2.45,2.87,2.87,0,0,0,.3-1.41c-.08-1.17-1.05-1.91-.78-2.29s1.06.15,1.3-.24-.35-1.38-.46-1.53c-.65-.87-1.26-.71-1.61-1.4s.05-1-.06-1.92a4.31,4.31,0,0,0-1.46-2.51,5.39,5.39,0,0,0-3.8-1.44,5.75,5.75,0,0,0-3.83,1.75c-.24.24-2.28,2.32-1.87,4.64.18,1,.77,1.82,2,3.34a8.8,8.8,0,0,1,1.7,2.4,6,6,0,0,1,.46,2.33,3.91,3.91,0,0,0,1.49-1.75c.1-.23,1-2.23-.09-3.34a2.46,2.46,0,0,0-2.69-.34,4.55,4.55,0,0,0,1.73-2.36c.5-1.86-.57-3.71-.32-3.83s.82,1.74,2.35,2.61a4.55,4.55,0,0,0,3.24.36c-1.68,1.28-1.94,2.21-1.89,2.82.12,1.32,1.81,1.79,1.73,3s-1.71,1.56-1.5,2.15,1.79.87,2.84.29a2.42,2.42,0,0,0,.67-.52,12.37,12.37,0,0,1,2.12-1.29,3.1,3.1,0,0,1,.8.25c.72.38,1.34,1.43,1.4,4A6.79,6.79,0,0,0,143.44,35c.87-1.28.55-1.82,1.31-2.58s1.23-.49,2.49-1.56c.21-.18.88-.76.79-.94h0a5.32,5.32,0,0,1,1.51-1.69c1.39-1,2.32-.56,3.6-.73a2.38,2.38,0,0,1,1.28.8c.62.9.13,2.32.08,2.91-.41.44-.91,1-1.83,1.88a39.79,39.79,0,0,1-4,3.32,14.11,14.11,0,0,0,4.45-2.85c1.47-1.42,1.57-2.19,3-3,1.89-1.15,2.47-.58,4.12-1.65a7.25,7.25,0,0,0,.76-.58,32.86,32.86,0,0,0,3.24-4.18,15,15,0,0,1,2.33-2.51,9.22,9.22,0,0,0,2.48-.9c1.18-.62,2-1.05,2.21-1.86S170.9,17.23,169.81,15.59Zm-6.66,8.78a10.55,10.55,0,0,0-1,1.31,6.62,6.62,0,0,1-1.49,1.95c-1.33,1.19-2.1,1.06-3.64,1.81-.55-.08-1.39-.2-1.71-.78s0-1.5.18-2.06c1.14-.84,1-1.64,2.9-2.69s2.59-.56,3.88-1.74,2.08-2.34,2.21-2.24a9,9,0,0,1-1.54,2.74,17.31,17.31,0,0,1-1.4,1.68A17,17,0,0,1,159.7,26a5.46,5.46,0,0,0,2.78-1.77,10.9,10.9,0,0,1,1.65-2.11c.75-.64,1.64-1,1.74-.87s-1,1.06-2.72,3.11Z" transform="translate(0 0)"/><path d="M152.13,54a11.68,11.68,0,0,1-.86,4.92,11.09,11.09,0,0,1-3.47,4.54,17.54,17.54,0,0,0,2-4.54,21.61,21.61,0,0,0,.37-8.66,36.2,36.2,0,0,0-1.91-8.53,8.14,8.14,0,0,1,0-2.87,7.45,7.45,0,0,1,.56-1.79c-.24.28-.48.58-.72.91s-.42.58-.6.86a4.21,4.21,0,0,1-1.6.86c-1,.27-1.41,0-1.86.22s-1,1.18-.82,4a4.41,4.41,0,0,1,.31-1.72c.08-.19.81-1.94,1.93-2,.6,0,1.13.47,1.63,1.18,2.4,3.4,2.15,8.79,2.15,8.79a23.3,23.3,0,0,1-2.63,9.59,26.3,26.3,0,0,1-5.06,7A25,25,0,0,0,149,64.92a26,26,0,0,0,6.67-4.11A26.79,26.79,0,0,0,153.94,57,25.93,25.93,0,0,0,152.13,54Z" transform="translate(0 0)"/><path d="M143.28,44v.53A2.35,2.35,0,0,0,143.28,44Z" transform="translate(0 0)"/><path d="M116.6,36.72l-1.46-3a4.09,4.09,0,0,0-4.48-2.31l-3.17.65,2.88-1.53a4.39,4.39,0,0,0,2.2-4.7L112,22.5l1.45,3a4.13,4.13,0,0,0,4.49,2.31l3.16-.65-2.88,1.5a4.4,4.4,0,0,0-2.2,4.7Z" transform="translate(0 0)"/><path d="M119.71,18.2l-1.46-.68a2,2,0,0,0-2.39.6l-1,1.28.64-1.53a2.22,2.22,0,0,0-.56-2.51l-1.23-1.06,1.46.67a2,2,0,0,0,2.39-.59l1-1.28-.64,1.52a2.22,2.22,0,0,0,.56,2.51Z" transform="translate(0 0)"/><path d="M127.66,62.12A7.9,7.9,0,0,1,123.39,58c-1.77-4.08.75-7.94.87-8.12a10.61,10.61,0,0,0-.52,6.18A10.4,10.4,0,0,0,127.66,62.12Z" transform="translate(0 0)"/><path d="M166.52,58.54l.77-4.85c.44-2.79-.72-5.34-2.85-6.26l-3.7-1.6,4.07.29c2.33.16,4.68-1.55,5.74-4.19l1.85-4.59-.77,4.85c-.44,2.79.72,5.34,2.85,6.26l3.7,1.59-4.07-.28c-2.33-.16-4.68,1.55-5.74,4.19Z" transform="translate(0 0)"/><path d="M160.82,18.71c-5.14,3.31-16.33,10.37-17.59,11,4.24-3,8.55-6,13-8.95,2.46-1.64,4.9-3.23,7.34-4.82a.9.9,0,0,1,.13.51,1.28,1.28,0,0,1,0,.27h0C162.69,17.41,161.74,18.06,160.82,18.71Z" transform="translate(0 0)"/><path d="M173.34,9.38c-.56,1-1.13,2-1.69,3.1-.77.11-1.52.22-2.29.35-.33.22-.66.49-1,.7l-.38-.24a1.45,1.45,0,0,0-.29-.11l1.21-.94c.31-.59.62-1.19.9-1.78C171,10.08,172.16,9.73,173.34,9.38Z" transform="translate(0 0)"/><path d="M126.75,67.91a26.85,26.85,0,0,0,10.8,3.75A28.43,28.43,0,0,0,150.34,70a38,38,0,0,0,12.17-6.71,33.23,33.23,0,0,1-14.71,8.89,22.57,22.57,0,0,1-11.24.72A22,22,0,0,1,126.75,67.91Z" transform="translate(0 0)"/><path d="M142.64,45.59,141.35,43a3.16,3.16,0,0,0-3.66-1.82l-2.47.72,2.2-1.49a4.08,4.08,0,0,0,1.51-4.25l-.65-2.9,1.3,2.59a3.13,3.13,0,0,0,3.66,1.82l2.47-.71-2.2,1.48A4.08,4.08,0,0,0,142,42.69Z" transform="translate(0 0)"/><path d="M133.18,30.54l-.64-1.3a1.55,1.55,0,0,0-1.82-.9l-1.27.32,1.09-.74a2,2,0,0,0,.76-2.12L131,24.36l.65,1.29a1.57,1.57,0,0,0,1.82.91l1.23-.36-1.1.74a2,2,0,0,0-.75,2.11Z" transform="translate(0 0)"/><path d="M103.8,56.59V4.18h4V56.59Z" transform="translate(0 0)"/><path d="M178.45,56.59V4.18h3.4l28.47,44v-44h4V56.59h-3.41L182.45,12.11V56.59Z" transform="translate(0 0)"/><path d="M77.65,33.76a17.61,17.61,0,0,0,7.4-2.34,13.26,13.26,0,0,0,4.81-4.94,14.22,14.22,0,0,0,1.68-7,16.59,16.59,0,0,0-1.79-7.91,12.7,12.7,0,0,0-5.1-5.27,15.92,15.92,0,0,0-7.89-1.87H60.08V8.5H76.45c3.82,0,6.63,1,8.45,3a11.44,11.44,0,0,1,2.72,8,9.61,9.61,0,0,1-3.15,7.55q-3.15,2.77-8.83,2.78H60V56.89h4v-23h8.78L98.1,70.24h5Z" transform="translate(0 0)"/><path d="M47.56,19.66A27.57,27.57,0,0,0,42.3,11a24.32,24.32,0,0,0-7.87-5.84,22.19,22.19,0,0,0-7.75-2v4.2a19.24,19.24,0,0,1,8.45,2.8,20.67,20.67,0,0,1,7.46,8.09,25.41,25.41,0,0,1,2.77,12.16,26.78,26.78,0,0,1-1.6,9.47,22,22,0,0,1-4.42,7.33,19.62,19.62,0,0,1-12.66,6.25v4.24a22.64,22.64,0,0,0,7.75-2,24.43,24.43,0,0,0,7.87-5.79,26.88,26.88,0,0,0,5.26-8.69,29.9,29.9,0,0,0,1.89-10.8A30,30,0,0,0,47.56,19.66ZM7.1,10.85a27.1,27.1,0,0,0-5.23,8.68,32.16,32.16,0,0,0,0,21.6A27.15,27.15,0,0,0,7.1,49.82,24.32,24.32,0,0,0,15,55.61a22.71,22.71,0,0,0,7.54,2v-4.2a19.32,19.32,0,0,1-8.19-2.77,20.72,20.72,0,0,1-7.45-8.09A25.46,25.46,0,0,1,4.09,30.38a26.71,26.71,0,0,1,1.6-9.49,22.21,22.21,0,0,1,4.43-7.3,19.8,19.8,0,0,1,6.57-4.7,19.26,19.26,0,0,1,5.82-1.53V3.15a23,23,0,0,0-7.54,2A23.86,23.86,0,0,0,7.1,10.88Z" transform="translate(0 0)"/><path d="M4,93.15a3.73,3.73,0,0,1-1.85-.43A3.12,3.12,0,0,1,.91,91.48a4.12,4.12,0,0,1-.18-3.3,3.29,3.29,0,0,1,1.85-1.86A3.62,3.62,0,0,1,4,86.06a4.06,4.06,0,0,1,1.34.19,2.9,2.9,0,0,1,1,.56l-.56.88A2,2,0,0,0,5,87.25a3.29,3.29,0,0,0-.94-.14,3.09,3.09,0,0,0-1,.17,2.48,2.48,0,0,0-.78.5,2.23,2.23,0,0,0-.49.79A3,3,0,0,0,2,90.92a2.12,2.12,0,0,0,.88.85,2.73,2.73,0,0,0,1.34.29,3.37,3.37,0,0,0,1-.15,2.84,2.84,0,0,0,.9-.5l.5.92a3.54,3.54,0,0,1-1.12.59A4.79,4.79,0,0,1,4,93.15Z" transform="translate(0 0)"/><path d="M14.58,93.15a3.62,3.62,0,0,1-1.42-.27A3.48,3.48,0,0,1,12,92.13,3.19,3.19,0,0,1,11.27,91a3.76,3.76,0,0,1,0-2.8A3.43,3.43,0,0,1,12,87.07a3.48,3.48,0,0,1,1.14-.75,3.8,3.8,0,0,1,1.42-.26,3.61,3.61,0,0,1,1.41.27,3.26,3.26,0,0,1,1.14.76,3.31,3.31,0,0,1,.76,1.13,3.71,3.71,0,0,1,0,2.78,3.22,3.22,0,0,1-.76,1.13,3.48,3.48,0,0,1-1.14.75A3.61,3.61,0,0,1,14.58,93.15Zm0-1a2.63,2.63,0,0,0,1-.17,2.14,2.14,0,0,0,.78-.52,2.2,2.2,0,0,0,.51-.79,2.9,2.9,0,0,0-.13-2.36,2.32,2.32,0,0,0-.88-.88,2.46,2.46,0,0,0-1.24-.31,2.63,2.63,0,0,0-1,.17,2.4,2.4,0,0,0-.78.51,2.51,2.51,0,0,0-.52.8,2.85,2.85,0,0,0-.18,1,2.59,2.59,0,0,0,.32,1.33,2.32,2.32,0,0,0,.88.88,2.46,2.46,0,0,0,1.24.31Z" transform="translate(0 0)"/><path d="M23.39,93V86.2h1.06l2.77,4.52H26.8l2.67-4.52h1V93h-1V87.65l.21.07-2.32,3.82h-.79l-2.36-3.82.17-.07V93Z" transform="translate(0 0)"/><path d="M36.17,93V86.2h1L40,90.72h-.43l2.68-4.52h1V93H42.19V87.66l.21.07-2.31,3.82h-.8l-2.36-3.82.18-.07V93Z" transform="translate(0 0)"/><path d="M51.65,93.15a2.94,2.94,0,0,1-1.53-.37,2.34,2.34,0,0,1-.92-1,3.23,3.23,0,0,1-.3-1.43V86.2H50v4.14a1.79,1.79,0,0,0,.46,1.32,1.88,1.88,0,0,0,2.42,0,1.82,1.82,0,0,0,.44-1.34V86.18h1.14v4.15a3.38,3.38,0,0,1-.31,1.43,2.4,2.4,0,0,1-.92,1A2.87,2.87,0,0,1,51.65,93.15Z" transform="translate(0 0)"/><path d="M60,93V86.2h1l3.43,5v-5h1.06V93h-1l-3.43-5v5Z" transform="translate(0 0)"/><path d="M71.21,93V86.2H72.3V93Z" transform="translate(0 0)"/><path d="M81.07,93.15a3.73,3.73,0,0,1-1.85-.43A3.21,3.21,0,0,1,78,91.48a4.14,4.14,0,0,1-.18-3.3,3.37,3.37,0,0,1,.74-1.12,3.22,3.22,0,0,1,1.12-.74,3.62,3.62,0,0,1,1.42-.26,4.06,4.06,0,0,1,1.34.19,2.9,2.9,0,0,1,1,.56l-.56.88a2.35,2.35,0,0,0-.75-.44,3.29,3.29,0,0,0-.94-.14,3.09,3.09,0,0,0-1,.17,2.22,2.22,0,0,0-.78.5,2.17,2.17,0,0,0-.5.79,3.09,3.09,0,0,0-.17,1A2.76,2.76,0,0,0,79,90.92a2.1,2.1,0,0,0,.87.85,3,3,0,0,0,1.34.29,3.37,3.37,0,0,0,1-.15,2.74,2.74,0,0,0,.9-.5l.51.92a3.76,3.76,0,0,1-1.12.59A4.79,4.79,0,0,1,81.07,93.15Z" transform="translate(0 0)"/><path d="M87.85,93,90.5,86.2h1.18L94.39,93H93.16l-.63-1.63H89.65L89.05,93Zm2.08-2.56h2.31l-1.18-3Z" transform="translate(0 0)"/><path d="M100.12,93V87.2H98.2v-1h4.92v1h-1.91V93Z" transform="translate(0 0)"/><path d="M108.16,93V86.2h1.09V93Z" transform="translate(0 0)"/><path d="M118.07,93.15a3.62,3.62,0,0,1-1.42-.27,3.48,3.48,0,0,1-1.14-.75,3.22,3.22,0,0,1-.76-1.13,3.74,3.74,0,0,1-.26-1.4,4,4,0,0,1,.26-1.4,3.31,3.31,0,0,1,.76-1.13,3.48,3.48,0,0,1,1.14-.75,3.8,3.8,0,0,1,1.42-.26,3.61,3.61,0,0,1,1.41.27,3.26,3.26,0,0,1,1.14.76,3.31,3.31,0,0,1,.76,1.13,3.71,3.71,0,0,1,0,2.78,3.22,3.22,0,0,1-.76,1.13,3.48,3.48,0,0,1-1.14.75A3.61,3.61,0,0,1,118.07,93.15Zm0-1a2.63,2.63,0,0,0,1-.17,2.1,2.1,0,0,0,.77-.52,2.22,2.22,0,0,0,.52-.79,2.9,2.9,0,0,0-.13-2.36,2.32,2.32,0,0,0-.88-.88,2.46,2.46,0,0,0-1.24-.31,2.63,2.63,0,0,0-1,.17,2.24,2.24,0,0,0-.78.51,2.51,2.51,0,0,0-.52.8,2.86,2.86,0,0,0-.19,1,2.58,2.58,0,0,0,.33,1.33,2.32,2.32,0,0,0,.88.88,2.46,2.46,0,0,0,1.24.31Z" transform="translate(0 0)"/><path d="M126.88,93V86.2h1l3.44,5v-5h1.13V93h-1L128,88v5Z" transform="translate(0 0)"/><path d="M146.19,93.15a2.5,2.5,0,0,1-1.14-.25,2,2,0,0,1-.78-.69,1.78,1.78,0,0,1-.28-1,1.67,1.67,0,0,1,.19-.79,2.07,2.07,0,0,1,.55-.66,3.14,3.14,0,0,1,.85-.49,3.57,3.57,0,0,1-.48-.55,1.89,1.89,0,0,1-.25-.49,1.81,1.81,0,0,1-.07-.52,1.42,1.42,0,0,1,.25-.83,1.82,1.82,0,0,1,.67-.59,1.9,1.9,0,0,1,.93-.22,2.22,2.22,0,0,1,1,.2,1.65,1.65,0,0,1,.66.57,1.47,1.47,0,0,1,.24.84,1.42,1.42,0,0,1-.38,1,3.67,3.67,0,0,1-1.12.79L148.42,91a4.3,4.3,0,0,0,.52-.81,7.75,7.75,0,0,0,.44-1.07l.87.35a5.75,5.75,0,0,1-.33.77,6.93,6.93,0,0,1-.43.75,4.36,4.36,0,0,1-.48.65l1.36,1.46h-1.25l-.74-.78a3.23,3.23,0,0,1-1,.68A3,3,0,0,1,146.19,93.15Zm.07-.9a2.06,2.06,0,0,0,.81-.17,2.39,2.39,0,0,0,.72-.5l-1.64-1.7a1.89,1.89,0,0,0-.85.53,1.13,1.13,0,0,0-.29.76,1,1,0,0,0,.33.78A1.34,1.34,0,0,0,146.26,92.25Zm.17-3.37a2.15,2.15,0,0,0,.83-.5.93.93,0,0,0,.27-.65.81.81,0,0,0-.24-.6.92.92,0,0,0-.65-.24,1,1,0,0,0-.64.23.74.74,0,0,0-.26.59,1.08,1.08,0,0,0,.15.55,3.65,3.65,0,0,0,.56.62Z" transform="translate(0 0)"/><path d="M161.79,93V86.2h4.4v1h-3.31V89h2.86V90h-2.86v2.13h3.34v1Z" transform="translate(0 0)"/><path d="M173.45,93l-2.61-6.81h1.23l2,5.35L176,86.2h1.2L174.64,93Z" transform="translate(0 0)"/><path d="M182,93V86.2h4.4v1H183V89h2.86V90H183v2.13h3.34v1Z" transform="translate(0 0)"/><path d="M191.79,93V86.2h1l3.44,5v-5h1.06V93h-1l-3.43-5v5Z" transform="translate(0 0)"/><path d="M204.28,93V87.2h-1.91v-1h4.92v1h-1.92V93Z" transform="translate(0 0)"/><path d="M214.54,93.15a4.61,4.61,0,0,1-1.38-.2,3,3,0,0,1-1.13-.58l.53-.83a2.12,2.12,0,0,0,.57.36,3.29,3.29,0,0,0,.69.23,3.53,3.53,0,0,0,.72.08,2,2,0,0,0,1.08-.25.83.83,0,0,0,.41-.74.8.8,0,0,0-.28-.62,2.87,2.87,0,0,0-1-.47l-.7-.2a3.15,3.15,0,0,1-1.4-.73,1.62,1.62,0,0,1-.44-1.14,1.79,1.79,0,0,1,.69-1.45,2.59,2.59,0,0,1,.79-.41,3.36,3.36,0,0,1,1-.14,4.21,4.21,0,0,1,1.27.2,2.7,2.7,0,0,1,1,.54l-.56.8a2,2,0,0,0-.49-.32,3,3,0,0,0-.6-.21,2.82,2.82,0,0,0-.65-.08,2.18,2.18,0,0,0-.72.12,1.14,1.14,0,0,0-.49.35,1,1,0,0,0-.17.54.84.84,0,0,0,.11.41,1.07,1.07,0,0,0,.41.32,5.2,5.2,0,0,0,.78.29l.74.22a3.16,3.16,0,0,1,1.38.72,1.54,1.54,0,0,1,.44,1.15,1.93,1.93,0,0,1-.3,1.07,2.1,2.1,0,0,1-.87.72A3.33,3.33,0,0,1,214.54,93.15Z" transform="translate(0 0)"/></svg>