<svg id="Layer_1" data-name="Layer 1" xmlns="http://www.w3.org/2000/svg" viewBox="0 0 295.04 78.12"><defs><style>.cls-1{fill:#b9daf3;}</style></defs><path class="cls-1" d="M467.37,549.23l.24.76a.8.8,0,0,0,.46.46l.76.25-.76.25a.76.76,0,0,0-.46.45l-.24.76-.25-.76a.76.76,0,0,0-.46-.45l-.76-.25.76-.25a.8.8,0,0,0,.46-.46Z" transform="translate(-173.79 -505.86)"/><path class="cls-1" d="M463.86,517.9l.1.29a.27.27,0,0,0,.18.18l.29.1-.29.09a.27.27,0,0,0-.18.18l-.1.29-.09-.29a.27.27,0,0,0-.18-.18l-.29-.09.29-.1a.27.27,0,0,0,.18-.18Z" transform="translate(-173.79 -505.86)"/><path class="cls-1" d="M458.42,549.66l.21.65a.64.64,0,0,0,.4.39l.65.22-.65.21a.64.64,0,0,0-.4.39l-.21.65-.21-.65a.64.64,0,0,0-.4-.39l-.65-.21.65-.22a.64.64,0,0,0,.4-.39Z" transform="translate(-173.79 -505.86)"/><path class="cls-1" d="M451.77,559.2l.26.81a.79.79,0,0,0,.49.49l.81.26-.81.27a.79.79,0,0,0-.49.49l-.26.8-.27-.8A.79.79,0,0,0,451,561l-.8-.27.8-.26a.79.79,0,0,0,.49-.49Z" transform="translate(-173.79 -505.86)"/><path class="cls-1" d="M446.68,558.53l.3.92a.91.91,0,0,0,.56.57l.93.3-.93.3a.91.91,0,0,0-.56.56l-.3.93-.31-.93a.87.87,0,0,0-.56-.56l-.92-.3.92-.3a.86.86,0,0,0,.56-.57Z" transform="translate(-173.79 -505.86)"/><path class="cls-1" d="M441.38,580l.21.65a.61.61,0,0,0,.4.4l.65.21-.65.22a.62.62,0,0,0-.4.39l-.21.65-.22-.65a.63.63,0,0,0-.39-.39l-.65-.22.65-.21a.62.62,0,0,0,.39-.4Z" transform="translate(-173.79 -505.86)"/><path class="cls-1" d="M436.41,542.44l.12.36a.32.32,0,0,0,.21.21l.36.12-.36.12a.32.32,0,0,0-.21.21l-.12.36-.12-.36a.32.32,0,0,0-.21-.21l-.36-.12.36-.12a.32.32,0,0,0,.21-.21Z" transform="translate(-173.79 -505.86)"/><path class="cls-1" d="M432.72,525l.26.78a.73.73,0,0,0,.47.47l.78.26-.78.26a.73.73,0,0,0-.47.47l-.26.78-.26-.78a.73.73,0,0,0-.47-.47l-.78-.26.78-.26a.73.73,0,0,0,.47-.47Z" transform="translate(-173.79 -505.86)"/><path class="cls-1" d="M428.75,538.39l.32,1a.91.91,0,0,0,.58.58l1,.32-1,.32a.92.92,0,0,0-.58.59l-.32,1-.32-1a.92.92,0,0,0-.58-.59l-1-.32,1-.32a.91.91,0,0,0,.58-.58Z" transform="translate(-173.79 -505.86)"/><path class="cls-1" d="M424.13,521.12l.16.48a.45.45,0,0,0,.29.28l.47.16-.47.16a.44.44,0,0,0-.29.29l-.16.47-.15-.47a.46.46,0,0,0-.29-.29l-.48-.16.48-.16a.47.47,0,0,0,.29-.28Z" transform="translate(-173.79 -505.86)"/><path class="cls-1" d="M420.38,510.78l.2.59a.58.58,0,0,0,.36.36l.59.19-.59.2a.56.56,0,0,0-.36.36l-.2.59-.19-.59a.56.56,0,0,0-.36-.36l-.59-.2.59-.19a.58.58,0,0,0,.36-.36Z" transform="translate(-173.79 -505.86)"/><path class="cls-1" d="M413.59,510.31l.28.84a.8.8,0,0,0,.52.51l.84.28-.84.28a.79.79,0,0,0-.52.52l-.28.84-.28-.84a.8.8,0,0,0-.51-.52l-.84-.28.84-.28a.81.81,0,0,0,.51-.51Z" transform="translate(-173.79 -505.86)"/><path class="cls-1" d="M409.65,518.73l.17.52a.51.51,0,0,0,.32.32l.53.17-.53.18a.49.49,0,0,0-.32.31l-.17.53-.17-.53a.49.49,0,0,0-.32-.31l-.53-.18.53-.17a.51.51,0,0,0,.32-.32Z" transform="translate(-173.79 -505.86)"/><path class="cls-1" d="M405.77,542.42l.18.53a.48.48,0,0,0,.32.33l.53.17-.53.18a.49.49,0,0,0-.32.32l-.18.53-.17-.53a.52.52,0,0,0-.33-.32l-.53-.18.53-.17a.52.52,0,0,0,.33-.33Z" transform="translate(-173.79 -505.86)"/><path class="cls-1" d="M402.2,529.79l.11.33a.31.31,0,0,0,.2.2l.33.11-.33.11a.31.31,0,0,0-.2.2l-.11.32-.11-.32a.29.29,0,0,0-.19-.2l-.33-.11.33-.11a.29.29,0,0,0,.19-.2Z" transform="translate(-173.79 -505.86)"/><path class="cls-1" d="M397.27,554.58l.24.75a.72.72,0,0,0,.45.45l.75.24-.75.25a.7.7,0,0,0-.45.45l-.24.74-.25-.74a.68.68,0,0,0-.45-.45l-.74-.25.74-.24a.7.7,0,0,0,.45-.45Z" transform="translate(-173.79 -505.86)"/><path class="cls-1" d="M390.41,522.79l.14.43a.43.43,0,0,0,.27.27l.44.14-.44.15a.44.44,0,0,0-.27.26l-.14.44-.14-.44a.44.44,0,0,0-.27-.26l-.44-.15.44-.14a.43.43,0,0,0,.27-.27Z" transform="translate(-173.79 -505.86)"/><path class="cls-1" d="M383.7,581.46l.22.65a.61.61,0,0,0,.39.39l.65.22-.65.21a.6.6,0,0,0-.39.4l-.22.65-.21-.65a.64.64,0,0,0-.4-.4l-.65-.21.65-.22a.64.64,0,0,0,.4-.39Z" transform="translate(-173.79 -505.86)"/><path class="cls-1" d="M377.72,534.8l.2.6a.56.56,0,0,0,.36.36l.59.19-.59.2a.54.54,0,0,0-.36.36l-.2.59-.2-.59a.54.54,0,0,0-.36-.36l-.59-.2.59-.19a.56.56,0,0,0,.36-.36Z" transform="translate(-173.79 -505.86)"/><path class="cls-1" d="M374.17,526.36l.22.68a.64.64,0,0,0,.41.41l.68.22-.68.23a.6.6,0,0,0-.41.41l-.22.67-.23-.67a.6.6,0,0,0-.41-.41l-.68-.23.68-.22a.64.64,0,0,0,.41-.41Z" transform="translate(-173.79 -505.86)"/><path class="cls-1" d="M368.42,553.14l.13.38a.34.34,0,0,0,.23.22l.38.13-.38.12a.37.37,0,0,0-.23.23l-.13.38-.12-.38a.4.4,0,0,0-.23-.23l-.38-.12.38-.13a.36.36,0,0,0,.23-.22Z" transform="translate(-173.79 -505.86)"/><path class="cls-1" d="M362.38,575.35l.12.37a.33.33,0,0,0,.23.23l.37.12-.37.13a.33.33,0,0,0-.23.23l-.12.37-.13-.37a.33.33,0,0,0-.23-.23l-.37-.13L362,576a.33.33,0,0,0,.23-.23Z" transform="translate(-173.79 -505.86)"/><path class="cls-1" d="M356.34,578.6l.26.79a.76.76,0,0,0,.48.48l.79.26-.79.26a.72.72,0,0,0-.48.48l-.26.79-.26-.79a.76.76,0,0,0-.48-.48l-.79-.26.79-.26a.81.81,0,0,0,.48-.48Z" transform="translate(-173.79 -505.86)"/><path class="cls-1" d="M350.15,507.32l.11.32a.3.3,0,0,0,.19.19l.32.1-.32.11a.3.3,0,0,0-.19.19l-.11.32-.1-.32a.3.3,0,0,0-.19-.19l-.32-.11.32-.1a.3.3,0,0,0,.19-.19Z" transform="translate(-173.79 -505.86)"/><path class="cls-1" d="M345.68,510.72l.29.87a.85.85,0,0,0,.53.53l.86.28-.86.29a.83.83,0,0,0-.53.52l-.29.87-.28-.87a.83.83,0,0,0-.53-.52l-.86-.29.86-.28a.85.85,0,0,0,.53-.53Z" transform="translate(-173.79 -505.86)"/><path class="cls-1" d="M341.92,556.16l.3.89a.81.81,0,0,0,.54.54l.89.3-.89.29a.85.85,0,0,0-.54.54l-.3.9-.29-.9a.85.85,0,0,0-.54-.54l-.89-.29.89-.3a.81.81,0,0,0,.54-.54Z" transform="translate(-173.79 -505.86)"/><path class="cls-1" d="M336.65,522.07l.11.35a.34.34,0,0,0,.21.21l.35.11-.35.12a.32.32,0,0,0-.21.21l-.11.34-.12-.34a.32.32,0,0,0-.21-.21l-.34-.12.34-.11a.34.34,0,0,0,.21-.21Z" transform="translate(-173.79 -505.86)"/><path class="cls-1" d="M330.5,559l.25.74a.7.7,0,0,0,.44.45l.74.24-.74.25a.69.69,0,0,0-.44.44l-.25.74-.24-.74a.7.7,0,0,0-.45-.44l-.73-.25.73-.24a.72.72,0,0,0,.45-.45Z" transform="translate(-173.79 -505.86)"/><path class="cls-1" d="M324,520.89l.12.35a.32.32,0,0,0,.21.21l.35.12-.35.11a.32.32,0,0,0-.21.21l-.12.35-.11-.35a.32.32,0,0,0-.21-.21l-.35-.11.35-.12a.32.32,0,0,0,.21-.21Z" transform="translate(-173.79 -505.86)"/><path class="cls-1" d="M318.52,562.27l.26.78a.74.74,0,0,0,.48.48l.79.26-.79.26a.75.75,0,0,0-.48.47l-.26.79-.25-.79a.77.77,0,0,0-.48-.47l-.79-.26.79-.26a.76.76,0,0,0,.48-.48Z" transform="translate(-173.79 -505.86)"/><path class="cls-1" d="M314.52,540.9l.25.78a.76.76,0,0,0,.47.47l.78.26-.78.25a.78.78,0,0,0-.47.47l-.25.78-.26-.78a.76.76,0,0,0-.47-.47l-.78-.25.78-.26a.73.73,0,0,0,.47-.47Z" transform="translate(-173.79 -505.86)"/><path class="cls-1" d="M307.5,574l.33,1a1,1,0,0,0,.61.6l1,.33-1,.34a1,1,0,0,0-.61.6l-.33,1-.33-1a.94.94,0,0,0-.61-.6l-1-.34,1-.33a.94.94,0,0,0,.61-.6Z" transform="translate(-173.79 -505.86)"/><path class="cls-1" d="M302.45,580.29l.1.31a.3.3,0,0,0,.19.19l.31.1-.31.1a.3.3,0,0,0-.19.19l-.1.31-.1-.31a.3.3,0,0,0-.19-.19l-.31-.1.31-.1a.3.3,0,0,0,.19-.19Z" transform="translate(-173.79 -505.86)"/><path class="cls-1" d="M295.81,551.25l.13.38a.39.39,0,0,0,.23.24l.39.12-.39.13a.37.37,0,0,0-.23.23l-.13.39-.12-.39a.39.39,0,0,0-.24-.23l-.38-.13.38-.12a.41.41,0,0,0,.24-.24Z" transform="translate(-173.79 -505.86)"/><path class="cls-1" d="M289.58,521.11l.19.59a.58.58,0,0,0,.37.36l.59.2-.59.2a.58.58,0,0,0-.37.36l-.19.59-.2-.59a.54.54,0,0,0-.36-.36l-.59-.2.59-.2a.54.54,0,0,0,.36-.36Z" transform="translate(-173.79 -505.86)"/><path class="cls-1" d="M283.91,576.84l.24.73a.69.69,0,0,0,.44.44l.72.24-.72.24a.67.67,0,0,0-.44.43l-.24.73-.24-.73a.67.67,0,0,0-.44-.43l-.72-.24.72-.24a.69.69,0,0,0,.44-.44Z" transform="translate(-173.79 -505.86)"/><path class="cls-1" d="M280.07,521.2l.17.52a.51.51,0,0,0,.32.32l.52.17-.52.17a.49.49,0,0,0-.32.31l-.17.52-.17-.52a.49.49,0,0,0-.32-.31l-.51-.17.51-.17a.51.51,0,0,0,.32-.32Z" transform="translate(-173.79 -505.86)"/><path class="cls-1" d="M273.89,557.2l.19.57a.59.59,0,0,0,.35.36l.58.19-.58.19a.55.55,0,0,0-.35.35l-.19.58-.19-.58a.55.55,0,0,0-.35-.35l-.58-.19.58-.19a.59.59,0,0,0,.35-.36Z" transform="translate(-173.79 -505.86)"/><path class="cls-1" d="M268.57,549.31l.1.29a.27.27,0,0,0,.18.18l.28.09-.28.1a.28.28,0,0,0-.18.17l-.1.29-.09-.29a.28.28,0,0,0-.18-.17l-.29-.1.29-.09a.27.27,0,0,0,.18-.18Z" transform="translate(-173.79 -505.86)"/><path class="cls-1" d="M263.1,570.42l.32,1a.94.94,0,0,0,.59.59l1,.32-1,.32a1,1,0,0,0-.59.59l-.32,1-.32-1a1,1,0,0,0-.59-.59l-1-.32,1-.32a.91.91,0,0,0,.59-.59Z" transform="translate(-173.79 -505.86)"/><path class="cls-1" d="M259.19,505.86l.25.74a.73.73,0,0,0,.45.46l.74.24-.74.25a.7.7,0,0,0-.45.45l-.25.74L259,508a.7.7,0,0,0-.45-.45l-.74-.25.74-.24a.73.73,0,0,0,.45-.46Z" transform="translate(-173.79 -505.86)"/><path class="cls-1" d="M254.68,526.93l.26.78a.75.75,0,0,0,.47.48l.78.26-.78.25a.75.75,0,0,0-.47.48l-.26.78-.26-.78a.75.75,0,0,0-.47-.48l-.79-.25.79-.26a.75.75,0,0,0,.47-.48Z" transform="translate(-173.79 -505.86)"/><path class="cls-1" d="M249.8,537.75l.12.35a.32.32,0,0,0,.21.21l.35.11-.35.12a.32.32,0,0,0-.21.21l-.12.35-.11-.35a.32.32,0,0,0-.21-.21l-.35-.12.35-.11a.32.32,0,0,0,.21-.21Z" transform="translate(-173.79 -505.86)"/><path class="cls-1" d="M244,546l.15.48a.46.46,0,0,0,.29.29l.48.16-.48.16a.46.46,0,0,0-.29.29l-.15.48-.16-.48a.46.46,0,0,0-.29-.29l-.48-.16.48-.16a.46.46,0,0,0,.29-.29Z" transform="translate(-173.79 -505.86)"/><path class="cls-1" d="M238.18,560.13l.26.79a.79.79,0,0,0,.49.49l.79.26-.79.26a.79.79,0,0,0-.49.49l-.26.79-.27-.79a.76.76,0,0,0-.48-.49l-.8-.26.8-.26a.76.76,0,0,0,.48-.49Z" transform="translate(-173.79 -505.86)"/><path class="cls-1" d="M232.81,528l.32,1a.91.91,0,0,0,.59.59l1,.32-1,.32a.92.92,0,0,0-.59.58l-.32,1-.32-1a.93.93,0,0,0-.58-.58l-1-.32,1-.32a.92.92,0,0,0,.58-.59Z" transform="translate(-173.79 -505.86)"/><path class="cls-1" d="M227.44,562.52l.2.61a.59.59,0,0,0,.37.37l.61.2-.61.2a.62.62,0,0,0-.37.37l-.2.61-.2-.61a.59.59,0,0,0-.37-.37l-.61-.2.61-.2a.57.57,0,0,0,.37-.37Z" transform="translate(-173.79 -505.86)"/><path class="cls-1" d="M222.54,523.1l.31,1a.92.92,0,0,0,.59.58l1,.32-1,.32a.94.94,0,0,0-.59.59l-.31,1-.32-1a.91.91,0,0,0-.59-.59l-1-.32,1-.32a.9.9,0,0,0,.59-.58Z" transform="translate(-173.79 -505.86)"/><path class="cls-1" d="M218.3,531.25l.29.89a.85.85,0,0,0,.54.54l.88.29-.88.29a.85.85,0,0,0-.54.54l-.29.89-.3-.89a.86.86,0,0,0-.53-.54l-.89-.29.89-.29a.86.86,0,0,0,.53-.54Z" transform="translate(-173.79 -505.86)"/><path class="cls-1" d="M214.05,546.17l.21.65a.63.63,0,0,0,.39.39l.64.21-.64.21a.63.63,0,0,0-.39.39l-.21.65-.21-.65a.65.65,0,0,0-.39-.39l-.65-.21.65-.21a.65.65,0,0,0,.39-.39Z" transform="translate(-173.79 -505.86)"/><path class="cls-1" d="M208.48,530l.18.56a.52.52,0,0,0,.34.34l.56.19-.56.18a.52.52,0,0,0-.34.34l-.18.56-.19-.56a.52.52,0,0,0-.34-.34l-.56-.18.56-.19a.52.52,0,0,0,.34-.34Z" transform="translate(-173.79 -505.86)"/><path class="cls-1" d="M204.37,510l.14.41a.36.36,0,0,0,.24.24l.4.13-.4.13a.36.36,0,0,0-.24.25l-.14.4-.13-.4a.4.4,0,0,0-.24-.25l-.4-.13.4-.13a.41.41,0,0,0,.24-.24Z" transform="translate(-173.79 -505.86)"/><path class="cls-1" d="M199.85,545.33l.12.35a.32.32,0,0,0,.21.21l.35.11-.35.12a.32.32,0,0,0-.21.21l-.12.35-.11-.35a.32.32,0,0,0-.21-.21l-.35-.12.35-.11a.32.32,0,0,0,.21-.21Z" transform="translate(-173.79 -505.86)"/><path class="cls-1" d="M195.89,525l.24.75a.75.75,0,0,0,.46.46l.75.25-.75.25a.76.76,0,0,0-.46.45l-.24.76-.25-.76a.71.71,0,0,0-.46-.45l-.75-.25.75-.25a.7.7,0,0,0,.46-.46Z" transform="translate(-173.79 -505.86)"/><path class="cls-1" d="M189.82,518l.26.77a.71.71,0,0,0,.47.47l.78.26-.78.26a.71.71,0,0,0-.47.47l-.26.77-.25-.77a.73.73,0,0,0-.47-.47l-.78-.26.78-.26a.73.73,0,0,0,.47-.47Z" transform="translate(-173.79 -505.86)"/><path class="cls-1" d="M184.4,572.31l.23.69a.67.67,0,0,0,.42.43l.69.23-.69.22a.67.67,0,0,0-.42.43l-.23.69-.23-.69a.69.69,0,0,0-.42-.43l-.7-.22.7-.23a.69.69,0,0,0,.42-.43Z" transform="translate(-173.79 -505.86)"/><path class="cls-1" d="M178.35,550.65l.29.89a.9.9,0,0,0,.54.54l.89.29-.89.29a.9.9,0,0,0-.54.54l-.29.89-.29-.89a.9.9,0,0,0-.54-.54l-.89-.29.89-.29a.9.9,0,0,0,.54-.54Z" transform="translate(-173.79 -505.86)"/><path class="cls-1" d="M174.67,553.33l.16.46a.41.41,0,0,0,.27.27l.46.16-.46.15a.4.4,0,0,0-.27.28l-.16.45-.15-.45a.4.4,0,0,0-.28-.28l-.45-.15.45-.16a.4.4,0,0,0,.28-.27Z" transform="translate(-173.79 -505.86)"/></svg>