<svg id="Layer_1" data-name="Layer 1" xmlns="http://www.w3.org/2000/svg" viewBox="0 0 355.64 370.49"><path d="M474.63,436.65A5.69,5.69,0,0,0,469,434a5.66,5.66,0,0,0-4.48,3.49l-97.64-58.87a5.69,5.69,0,0,0-5.43-8.17,5.59,5.59,0,0,0-.82.12l-22.15-74.06a5.43,5.43,0,0,0,.84-.41,5.67,5.67,0,0,0,2-7.62l86.15-58.28a5.65,5.65,0,0,0,3.84,2.18,5.5,5.5,0,0,0,2.47-.26l4.88,11.19-.22.12a5.69,5.69,0,0,0-1.92,7.81,5.69,5.69,0,0,0,6.46,2.5l8.45,21.59-.26.13a5.68,5.68,0,0,0,.07,9.77L448,295.67a5.38,5.38,0,0,0-1.14-.13,5.74,5.74,0,0,0-3,.81,5.68,5.68,0,1,0,5.88,9.73,5,5,0,0,0,.64-.46,5.68,5.68,0,0,0,1.29-7.34A5.61,5.61,0,0,0,449,296l3.22-10.35a5.65,5.65,0,0,0,4.29-.15,5.07,5.07,0,0,0,.61-.32,5.68,5.68,0,0,0-4.35-10.37l-.36.11-8.44-21.55c.14-.07.28-.14.41-.22a4.5,4.5,0,0,0,.65-.47,5.67,5.67,0,0,0-5.39-9.78l-4.88-11.19.22-.12a5.63,5.63,0,0,0,2-2,5.69,5.69,0,0,0-7.87-7.71,5.84,5.84,0,0,0-1,.81l-6.41-19.72a5.68,5.68,0,0,0-4.07-10,5.74,5.74,0,0,0-2.5.8l-.32.21-46.33-31.65a5.68,5.68,0,0,0-4.31-9.61,5.62,5.62,0,0,0-2.74.81,5.7,5.7,0,0,0-1.92,7.81,5.63,5.63,0,0,0,1.73,1.8,5.7,5.7,0,0,0,6.08.12l.38-.26,46.32,31.65a5.68,5.68,0,0,0,6.82,8.94l6.51,20a5.68,5.68,0,0,0-.3,5.76l-86.18,58.3a5.69,5.69,0,0,0-7.35-1.28,5.77,5.77,0,0,0-1.94,1.95l-41.88-20.19a5.68,5.68,0,0,0-6-7.65,5.76,5.76,0,0,0-2.25.78,5.7,5.7,0,0,0-1.92,7.8,5.43,5.43,0,0,0,1.05,1.27l.13.12-37,52.21a5.65,5.65,0,0,0-4-.15,5.26,5.26,0,0,0-1.16.53,5.66,5.66,0,0,0-2.24,2.52L213,317.35a5.65,5.65,0,0,0-.64-4.35,5.69,5.69,0,0,0-9.11-.84,5.94,5.94,0,0,0-.6.82L152.19,287.9a5.67,5.67,0,0,0-.42-5l-.17-.25,5.57-8.62a5.74,5.74,0,0,0,3.13-.82,5.69,5.69,0,0,0-.45-10,6,6,0,0,0-2.08-.56l-1.18-80.2a5.48,5.48,0,0,0,1.19-.25,5.89,5.89,0,0,0,1.17-.54A5.68,5.68,0,0,0,154,171.49a6,6,0,0,0-1,.46,5.68,5.68,0,0,0,2.52,10.53l1.18,80.21a5.63,5.63,0,0,0-2.36.78,6.4,6.4,0,0,0-.83.62,5.68,5.68,0,0,0,2.49,9.78l-5.14,8a5.68,5.68,0,0,0-4.84-1.63l-.1,0-19-74.93a5.83,5.83,0,0,0,1.46-.62,5.69,5.69,0,0,0,2.74-4.66,5.62,5.62,0,0,0-.82-3.15,6,6,0,0,0-.54-.75,5.68,5.68,0,0,0-7-1.3l-.24.13A5.68,5.68,0,0,0,126,205.46l19,75a5.11,5.11,0,0,0-1.06.5,5.68,5.68,0,0,0-1.92,7.8,5.44,5.44,0,0,0,.86,1.09,5.69,5.69,0,0,0,6.87.88l.07,0a5.69,5.69,0,0,0,1.91-1.9l50.42,25.07a5.66,5.66,0,0,0,4.32,7.67,5.63,5.63,0,0,0,3.91-.73,5.7,5.7,0,0,0,1.79-1.73,5.11,5.11,0,0,0,.44-.79l23.28,8.17a5.67,5.67,0,0,0,7.48,6.73,5.36,5.36,0,0,0,1-.46,5.77,5.77,0,0,0,1-.79l98.26,84.63a5.67,5.67,0,0,0,4.25,9,5.41,5.41,0,0,0,1.6-.12l27.6,87-.3.17a5.68,5.68,0,0,0,5.07,10.13,6.76,6.76,0,0,0,.81-.4,5.68,5.68,0,0,0,1.92-7.81,5.58,5.58,0,0,0-1.7-1.78l82.69-69.28.13-.1.12.35a5.69,5.69,0,0,0,6.84.79l0,0A5.68,5.68,0,0,0,474.63,436.65ZM345.32,415a5.32,5.32,0,0,0-.88.66l.12.36-.26-.23L246,331.18a5.69,5.69,0,0,0,.24-6.26,5.63,5.63,0,0,0-1.79-1.84L281.43,271a5.68,5.68,0,0,0,5.81-.05h0a5.71,5.71,0,0,0,1.91-1.94l41.88,20.2a5.67,5.67,0,0,0,4.65,7.65,5.74,5.74,0,0,0,1.8-.08l22.15,74.05a5.49,5.49,0,0,0-.84.42,5.67,5.67,0,0,0-1.92,7.8,5.6,5.6,0,0,0,1.58,1.7,5.67,5.67,0,0,0,1.74.82l-2.87,15.12a5.71,5.71,0,0,0-4.61.57,5.78,5.78,0,0,0-1.26,1,5.7,5.7,0,0,0-.66,6.78,5.62,5.62,0,0,0,3.16,2.47l-3.61,7.09A5.66,5.66,0,0,0,345.32,415Zm36.62,97.19a5.72,5.72,0,0,0-3.83-.21l-.09,0-27.57-86.9a5.87,5.87,0,0,0,.75-.38,5.57,5.57,0,0,0,2.15-2.35,5.66,5.66,0,0,0-2.08-7.33l3.72-7.33a5.66,5.66,0,0,0,3.64-.77,5.8,5.8,0,0,0,1.83-1.79,5.67,5.67,0,0,0-2.18-8.13l2.91-15.31a5.59,5.59,0,0,0,3.51-.79l.34-.22a5.54,5.54,0,0,0,1.31-1.29l97.86,59c0,.14-.06.27-.08.41a5.71,5.71,0,0,0,.77,3.7l.08.1Z" transform="translate(-119.82 -152.64)"/></svg>