<svg id="Layer_1" data-name="Layer 1" xmlns="http://www.w3.org/2000/svg" viewBox="0 0 355.68 370.49"><defs><style>.cls-1{fill:#fff;}</style></defs><path class="cls-1" d="M354.81,284a5.69,5.69,0,0,0-10.11.84L247.06,226a5.69,5.69,0,0,0-5.43-8.17,5.59,5.59,0,0,0-.82.12l-22.15-74.06a5.43,5.43,0,0,0,.84-.41,5.68,5.68,0,0,0,2-7.62l86.15-58.28a5.66,5.66,0,0,0,3.84,2.18,5.59,5.59,0,0,0,2.47-.26l4.88,11.19-.22.12a5.68,5.68,0,0,0,4.54,10.31l8.45,21.59-.26.13a5.68,5.68,0,0,0,.07,9.77L328.18,143a5.46,5.46,0,0,0-1.14-.13,5.75,5.75,0,0,0-3,.81,5.68,5.68,0,1,0,5.88,9.73h0a5,5,0,0,0,.64-.46,5.68,5.68,0,0,0,1.29-7.34,5.55,5.55,0,0,0-2.67-2.28L332.4,133a5.64,5.64,0,0,0,4.29-.15,5.07,5.07,0,0,0,.61-.32A5.68,5.68,0,0,0,333,122.17l-.36.11-8.44-21.55c.14-.07.28-.14.41-.22a4.3,4.3,0,0,0,.65-.47,5.67,5.67,0,0,0-5.39-9.78l-4.88-11.19.22-.12a5.67,5.67,0,1,0-5.87-9.71,5.54,5.54,0,0,0-1,.81l-6.41-19.72a5.67,5.67,0,0,0-6.57-9.2l-.32.21L248.66,9.69a5.69,5.69,0,1,0-9-1,5.61,5.61,0,0,0,1.73,1.8,5.71,5.71,0,0,0,6.08.12l.38-.26L294.2,42A5.68,5.68,0,0,0,301,51l6.51,20a5.69,5.69,0,0,0-.3,5.76L221.05,135a5.68,5.68,0,0,0-9.29.67l-41.88-20.19a5.69,5.69,0,0,0-6-7.65,5.81,5.81,0,0,0-2.25.78,5.7,5.7,0,0,0-1.92,7.8,5.55,5.55,0,0,0,1,1.27l.13.12-37,52.21a5.63,5.63,0,0,0-4-.15,5.3,5.3,0,0,0-1.16.53,5.59,5.59,0,0,0-2.24,2.52l-23.31-8.21a5.69,5.69,0,0,0-8.46-6.27,6.07,6.07,0,0,0-1.29,1.08,6.89,6.89,0,0,0-.6.82L32.37,135.26a5.65,5.65,0,0,0-.42-5l-.17-.25,5.57-8.62a5.71,5.71,0,0,0,5.08-8.63,5.64,5.64,0,0,0-2.4-2.19A6,6,0,0,0,38,110l-1.18-80.2A5.48,5.48,0,0,0,38,29.56,6.21,6.21,0,0,0,39.13,29a5.68,5.68,0,0,0-5-10.17,6,6,0,0,0-1,.46A5.68,5.68,0,0,0,35.7,29.84l1.18,80.21a5.68,5.68,0,0,0-2.36.78,6.18,6.18,0,0,0-.83.62,5.68,5.68,0,0,0,2.49,9.78l-5.14,8a5.68,5.68,0,0,0-4.84-1.63h-.1L7.1,52.67a6.05,6.05,0,0,0,1.46-.62,5.68,5.68,0,0,0,1.92-7.81,6.46,6.46,0,0,0-.54-.75,5.69,5.69,0,0,0-7-1.3l-.24.13a5.68,5.68,0,0,0,3.48,10.5l19,75a5.14,5.14,0,0,0-1.06.5,5.69,5.69,0,0,0-1.92,7.8h0a5.7,5.7,0,0,0,7.73,2H30a5.69,5.69,0,0,0,1.91-1.9l50.42,25.07a5.66,5.66,0,0,0,3.17,7.35,5.78,5.78,0,0,0,1.15.32,5.63,5.63,0,0,0,5.7-2.46,4.69,4.69,0,0,0,.44-.79l23.28,8.17a5.67,5.67,0,0,0,7.48,6.73,5.32,5.32,0,0,0,1-.46,5.89,5.89,0,0,0,1-.79L223.81,264a5.67,5.67,0,0,0,4.25,9,5.36,5.36,0,0,0,1.6-.12l27.6,87-.3.17A5.68,5.68,0,0,0,262,370.14a7.61,7.61,0,0,0,.81-.4,5.68,5.68,0,0,0,1.93-7.8h0a5.67,5.67,0,0,0-1.7-1.78l82.69-69.28.13-.1.12.35a5.69,5.69,0,0,0,6.84.79h0a5.68,5.68,0,0,0,2.05-7.77ZM225.5,262.36a5.19,5.19,0,0,0-.88.66l.12.36-.26-.23-98.3-84.61a5.69,5.69,0,0,0-1.55-8.1l37-52.08a5.68,5.68,0,0,0,5.81,0h0a5.72,5.72,0,0,0,1.91-1.94l41.88,20.2a5.68,5.68,0,0,0,3.28,7.32,5.83,5.83,0,0,0,1.37.33,5.72,5.72,0,0,0,1.8-.08l22.15,74.05a6.58,6.58,0,0,0-.84.42,5.67,5.67,0,0,0-1.93,7.78v0a5.58,5.58,0,0,0,1.58,1.7,5.67,5.67,0,0,0,1.74.82l-2.87,15.12A5.66,5.66,0,0,0,231,252.4a5.64,5.64,0,0,0,3.16,2.47L230.52,262A5.66,5.66,0,0,0,225.5,262.36Zm36.62,97.19a5.73,5.73,0,0,0-3.83-.21h-.09l-27.57-86.9a6.59,6.59,0,0,0,.75-.38,5.55,5.55,0,0,0,2.15-2.35,5.66,5.66,0,0,0-2.08-7.33l3.72-7.33a5.68,5.68,0,0,0,3.79-10.4,5,5,0,0,0-.5-.29l2.91-15.31a5.6,5.6,0,0,0,3.51-.79l.34-.22a5.35,5.35,0,0,0,1.31-1.29l97.86,59a3,3,0,0,1-.08.41,5.72,5.72,0,0,0,.77,3.7l.08.1Z" transform="translate(0.01 -0.08)"/></svg>